<?xml version="1.0" standalone="no"?>
 <!DOCTYPE svg PUBLIC "-//W3C//DTD SVG 1.1//EN" 
 "http://www.w3.org/Graphics/SVG/1.1/DTD/svg11.dtd"> 
<svg
  xmlns:svg="http://www.w3.org/2000/svg"
  xmlns="http://www.w3.org/2000/svg"
  xmlns:xlink="http://www.w3.org/1999/xlink"
  version="1.1"
  width="67.4878mm" height="32.4866mm" viewBox="0.0000 0.0000 67.4878 32.4866">
<title>SVG Image created as QATCH_MUX_PCB_tester_1x1-F_Cu.svg date 2024/05/28 11:30:13 </title>
  <desc>Image generated by PCBNEW </desc>
<g style="fill:#000000; fill-opacity:1.0000;stroke:#000000; stroke-opacity:1.0000;
stroke-linecap:round; stroke-linejoin:round;"
 transform="translate(0 0) scale(1 1)">
<path style="fill:#C83434; fill-opacity:1.0000; stroke:none;fill-rule:evenodd;"
d="M 44.4204,7.6586
44.4204,7.2014
45.6396,7.2014
45.6396,7.6586
Z" /> 
<path style="fill:#C83434; fill-opacity:1.0000; stroke:none;fill-rule:evenodd;"
d="M 44.4204,10.1986
44.4204,9.7414
45.6396,9.7414
45.6396,10.1986
Z" /> 
<path style="fill:#C83434; fill-opacity:1.0000; stroke:none;fill-rule:evenodd;"
d="M 51.0244,10.1986
51.0244,9.7414
52.2436,9.7414
52.2436,10.1986
Z" /> 
<path style="fill:#C83434; fill-opacity:1.0000; stroke:none;fill-rule:evenodd;"
d="M 51.0244,7.6586
51.0244,7.2014
52.2436,7.2014
52.2436,7.6586
Z" /> 
<path style="fill:#C83434; fill-opacity:1.0000; stroke:none;fill-rule:evenodd;"
d="M 22.5165,7.5172
22.5165,6.6028
23.4817,6.6028
23.4817,7.5172
Z" /> 
<path style="fill:#C83434; fill-opacity:1.0000; stroke:none;fill-rule:evenodd;"
d="M 23.9643,7.5172
23.9643,6.6028
24.9295,6.6028
24.9295,7.5172
Z" /> 
<path style="fill:#C83434; fill-opacity:1.0000; stroke:none;fill-rule:evenodd;"
d="M 12.5300,22.2300
14.0500,22.2300
14.0500,23.7500
12.5300,23.7500
Z" /> 
</g>
<g style="fill:#C83434; fill-opacity:1.0000; stroke:none;">
<circle cx="13.2900" cy="19.9900" r="0.7600" /> 
</g>
<g style="fill:#C83434; fill-opacity:1.0000; stroke:none;">
<circle cx="13.2900" cy="16.9900" r="0.7600" /> 
</g>
<g style="fill:#C83434; fill-opacity:1.0000; stroke:none;">
<circle cx="13.2900" cy="13.9900" r="0.7600" /> 
</g>
<g style="fill:#C83434; fill-opacity:1.0000; stroke:none;">
<circle cx="13.2900" cy="10.9900" r="0.7600" /> 
<path style="fill:#C83434; fill-opacity:1.0000; stroke:none;fill-rule:evenodd;"
d="M 21.4788,9.8740
21.4788,9.3660
22.7996,9.3660
22.7996,9.8740
Z" /> 
<path style="fill:#C83434; fill-opacity:1.0000; stroke:none;fill-rule:evenodd;"
d="M 21.4788,10.8240
21.4788,10.3160
22.7996,10.3160
22.7996,10.8240
Z" /> 
<path style="fill:#C83434; fill-opacity:1.0000; stroke:none;fill-rule:evenodd;"
d="M 21.4788,11.7740
21.4788,11.2660
22.7996,11.2660
22.7996,11.7740
Z" /> 
<path style="fill:#C83434; fill-opacity:1.0000; stroke:none;fill-rule:evenodd;"
d="M 24.0696,11.7740
24.0696,11.2660
25.3904,11.2660
25.3904,11.7740
Z" /> 
<path style="fill:#C83434; fill-opacity:1.0000; stroke:none;fill-rule:evenodd;"
d="M 24.0696,9.8740
24.0696,9.3660
25.3904,9.3660
25.3904,9.8740
Z" /> 
</g>
<g style="fill:#C83434; fill-opacity:1.0000; stroke:none;">
<circle cx="57.8540" cy="20.5100" r="0.8001" /> 
</g>
<g style="fill:#C83434; fill-opacity:1.0000; stroke:none;">
<circle cx="57.8540" cy="24.3200" r="0.8001" /> 
<path style="fill:#C83434; fill-opacity:1.0000; stroke:none;fill-rule:evenodd;"
d="M 22.8904,17.6310
21.9252,17.6310
21.9252,16.8690
22.8904,16.8690
Z" /> 
<path style="fill:#C83434; fill-opacity:1.0000; stroke:none;fill-rule:evenodd;"
d="M 23.9826,17.6310
23.0174,17.6310
23.0174,16.8690
23.9826,16.8690
Z" /> 
<path style="fill:#C83434; fill-opacity:1.0000; stroke:none;fill-rule:evenodd;"
d="M 38.7696,22.3264
38.7696,21.5136
39.5316,21.5136
39.5316,22.3264
Z" /> 
<path style="fill:#C83434; fill-opacity:1.0000; stroke:none;fill-rule:evenodd;"
d="M 40.3190,22.3264
40.3190,21.5136
41.0810,21.5136
41.0810,22.3264
Z" /> 
<path style="fill:#C83434; fill-opacity:1.0000; stroke:none;fill-rule:evenodd;"
d="M 28.9878,13.1394
28.9878,12.5806
31.1722,12.5806
31.1722,13.1394
Z" /> 
<path style="fill:#C83434; fill-opacity:1.0000; stroke:none;fill-rule:evenodd;"
d="M 28.9878,14.4094
28.9878,13.8506
31.1722,13.8506
31.1722,14.4094
Z" /> 
<path style="fill:#C83434; fill-opacity:1.0000; stroke:none;fill-rule:evenodd;"
d="M 28.9878,15.6794
28.9878,15.1206
31.1722,15.1206
31.1722,15.6794
Z" /> 
<path style="fill:#C83434; fill-opacity:1.0000; stroke:none;fill-rule:evenodd;"
d="M 28.9878,16.9494
28.9878,16.3906
31.1722,16.3906
31.1722,16.9494
Z" /> 
<path style="fill:#C83434; fill-opacity:1.0000; stroke:none;fill-rule:evenodd;"
d="M 28.9878,18.2194
28.9878,17.6606
31.1722,17.6606
31.1722,18.2194
Z" /> 
<path style="fill:#C83434; fill-opacity:1.0000; stroke:none;fill-rule:evenodd;"
d="M 28.9878,19.4894
28.9878,18.9306
31.1722,18.9306
31.1722,19.4894
Z" /> 
<path style="fill:#C83434; fill-opacity:1.0000; stroke:none;fill-rule:evenodd;"
d="M 28.9878,20.7594
28.9878,20.2006
31.1722,20.2006
31.1722,20.7594
Z" /> 
<path style="fill:#C83434; fill-opacity:1.0000; stroke:none;fill-rule:evenodd;"
d="M 28.9878,22.0294
28.9878,21.4706
31.1722,21.4706
31.1722,22.0294
Z" /> 
<path style="fill:#C83434; fill-opacity:1.0000; stroke:none;fill-rule:evenodd;"
d="M 33.7122,22.0294
33.7122,21.4706
35.8966,21.4706
35.8966,22.0294
Z" /> 
<path style="fill:#C83434; fill-opacity:1.0000; stroke:none;fill-rule:evenodd;"
d="M 33.7122,20.7594
33.7122,20.2006
35.8966,20.2006
35.8966,20.7594
Z" /> 
<path style="fill:#C83434; fill-opacity:1.0000; stroke:none;fill-rule:evenodd;"
d="M 33.7122,19.4894
33.7122,18.9306
35.8966,18.9306
35.8966,19.4894
Z" /> 
<path style="fill:#C83434; fill-opacity:1.0000; stroke:none;fill-rule:evenodd;"
d="M 33.7122,18.2194
33.7122,17.6606
35.8966,17.6606
35.8966,18.2194
Z" /> 
<path style="fill:#C83434; fill-opacity:1.0000; stroke:none;fill-rule:evenodd;"
d="M 33.7122,16.9494
33.7122,16.3906
35.8966,16.3906
35.8966,16.9494
Z" /> 
<path style="fill:#C83434; fill-opacity:1.0000; stroke:none;fill-rule:evenodd;"
d="M 33.7122,15.6794
33.7122,15.1206
35.8966,15.1206
35.8966,15.6794
Z" /> 
<path style="fill:#C83434; fill-opacity:1.0000; stroke:none;fill-rule:evenodd;"
d="M 33.7122,14.4094
33.7122,13.8506
35.8966,13.8506
35.8966,14.4094
Z" /> 
<path style="fill:#C83434; fill-opacity:1.0000; stroke:none;fill-rule:evenodd;"
d="M 33.7122,13.1394
33.7122,12.5806
35.8966,12.5806
35.8966,13.1394
Z" /> 
</g>
<g style="fill:#C83434; fill-opacity:1.0000; stroke:none;">
<circle cx="57.8440" cy="9.1000" r="0.8001" /> 
</g>
<g style="fill:#C83434; fill-opacity:1.0000; stroke:none;">
<circle cx="57.8440" cy="12.9100" r="0.8001" /> 
<path style="fill:#C83434; fill-opacity:1.0000; stroke:none;fill-rule:evenodd;"
d="M 19.5872,11.7726
18.6728,11.7726
18.6728,10.8074
19.5872,10.8074
Z" /> 
<path style="fill:#C83434; fill-opacity:1.0000; stroke:none;fill-rule:evenodd;"
d="M 19.5872,10.3248
18.6728,10.3248
18.6728,9.3596
19.5872,9.3596
Z" /> 
<path style="fill:#C83434; fill-opacity:1.0000; stroke:none;fill-rule:evenodd;"
d="M 19.8443,23.4064
19.8443,22.5936
20.6063,22.5936
20.6063,23.4064
Z" /> 
<path style="fill:#C83434; fill-opacity:1.0000; stroke:none;fill-rule:evenodd;"
d="M 21.3937,23.4064
21.3937,22.5936
22.1557,22.5936
22.1557,23.4064
Z" /> 
<path style="fill:#C83434; fill-opacity:1.0000; stroke:none;fill-rule:evenodd;"
d="M 38.8196,17.6564
38.8196,16.8436
39.5816,16.8436
39.5816,17.6564
Z" /> 
<path style="fill:#C83434; fill-opacity:1.0000; stroke:none;fill-rule:evenodd;"
d="M 40.3690,17.6564
40.3690,16.8436
41.1310,16.8436
41.1310,17.6564
Z" /> 
<path style="fill:#C83434; fill-opacity:1.0000; stroke:none;fill-rule:evenodd;"
d="M 44.3924,23.9086
44.3924,23.4514
45.6116,23.4514
45.6116,23.9086
Z" /> 
<path style="fill:#C83434; fill-opacity:1.0000; stroke:none;fill-rule:evenodd;"
d="M 44.3924,26.4486
44.3924,25.9914
45.6116,25.9914
45.6116,26.4486
Z" /> 
<path style="fill:#C83434; fill-opacity:1.0000; stroke:none;fill-rule:evenodd;"
d="M 50.9964,26.4486
50.9964,25.9914
52.2156,25.9914
52.2156,26.4486
Z" /> 
<path style="fill:#C83434; fill-opacity:1.0000; stroke:none;fill-rule:evenodd;"
d="M 50.9964,23.9086
50.9964,23.4514
52.2156,23.4514
52.2156,23.9086
Z" /> 
<path style="fill:#C83434; fill-opacity:1.0000; stroke:none;fill-rule:evenodd;"
d="M 48.2326,17.6310
47.2674,17.6310
47.2674,16.8690
48.2326,16.8690
Z" /> 
<path style="fill:#C83434; fill-opacity:1.0000; stroke:none;fill-rule:evenodd;"
d="M 49.3248,17.6310
48.3596,17.6310
48.3596,16.8690
49.3248,16.8690
Z" /> 
<path style="fill:#C83434; fill-opacity:1.0000; stroke:none;fill-rule:evenodd;"
d="M 38.8190,13.0864
38.8190,12.2736
39.5810,12.2736
39.5810,13.0864
Z" /> 
<path style="fill:#C83434; fill-opacity:1.0000; stroke:none;fill-rule:evenodd;"
d="M 40.3684,13.0864
40.3684,12.2736
41.1304,12.2736
41.1304,13.0864
Z" /> 
</g>
<g style="fill:#ECECEC; fill-opacity:1.0000; stroke:none;">
<circle cx="33.5000" cy="26.5000" r="1.7500" /> 
</g>
<g style="fill:#ECECEC; fill-opacity:1.0000; stroke:none;">
<circle cx="33.5000" cy="7.2500" r="1.7500" /> 
</g>
<g style="fill:#ECECEC; fill-opacity:1.0000; stroke:none;">
<circle cx="32.4500" cy="18.2000" r="0.3000" /> 
</g>
<g style="fill:#ECECEC; fill-opacity:1.0000; stroke:none;">
<circle cx="32.4500" cy="13.8500" r="0.3000" /> 
</g>
<g style="fill:#ECECEC; fill-opacity:1.0000; stroke:none;">
<circle cx="37.7500" cy="17.2500" r="0.3000" /> 
</g>
<g style="fill:#ECECEC; fill-opacity:1.0000; stroke:none;">
<circle cx="43.2500" cy="26.2500" r="0.3000" /> 
</g>
<g style="fill:none; 
stroke:#C83434; stroke-width:0.2000; stroke-opacity:1; 
stroke-linecap:round; stroke-linejoin:round;">
<path d="M13.2900 22.9900
L13.2900 22.9401
" />
<path d="M13.2900 22.9401
L13.2900 22.8902
" />
<path d="M13.2900 22.8400
L13.2900 22.8902
" />
<path d="M19.1300 11.2900
L20.9471 11.2900
" />
<path d="M20.9471 11.2900
L21.1771 11.5200
" />
<path d="M13.2900 10.9900
L13.5900 11.2900
" />
<path d="M22.1392 11.5200
L21.1771 11.5200
" />
<path d="M13.5900 11.2900
L19.1300 11.2900
" />
<path d="M22.1392 11.5200
L23.1013 11.5200
" />
<path d="M22.1392 9.6200
L23.1013 9.6200
" />
<path d="M23.1013 11.5200
L23.1013 9.6200
" />
<path d="M30.0800 19.2100
L26.2102 19.2100
" />
<path d="M32.1628 19.8989
L31.4739 19.2100
" />
<path d="M24.4469 9.3369
L24.7300 9.6200
" />
<path d="M49.2216 17.6277
L49.2216 17.7232
" />
<path d="M26.2102 19.2100
L24.2502 17.2500
" />
<path d="M32.4500 13.8500
L33.4105 12.8895
" />
<path d="M32.4500 18.2000
L31.4739 19.1761
" />
<path d="M34.8044 12.8600
L33.4105 12.8600
" />
<path d="M33.4105 12.8600
L30.1705 9.6200
" />
<path d="M35.5014 12.8600
L36.1983 12.8600
" />
<path d="M48.8439 17.2500
L49.2216 17.6277
" />
<path d="M36.3783 12.6800
L36.1983 12.8600
" />
<path d="M39.2000 12.6800
L36.3783 12.6800
" />
<path d="M39.2500 21.8206
L39.1506 21.9200
" />
<path d="M35.5014 12.8600
L34.8044 12.8600
" />
<path d="M24.4469 7.0600
L24.4469 9.3369
" />
<path d="M47.0459 19.8989
L37.4836 19.8989
" />
<path d="M37.4836 19.8989
L32.1628 19.8989
" />
<path d="M39.1506 21.9200
L39.1506 21.5659
" />
<path d="M39.1506 21.5659
L37.4836 19.8989
" />
<path d="M49.2216 17.7232
L47.0459 19.8989
" />
<path d="M24.7300 9.6200
L30.1705 9.6200
" />
<path d="M31.4739 19.1761
L31.4739 19.2100
" />
<path d="M30.0800 19.2100
L31.4739 19.2100
" />
<path d="M24.2502 17.2500
L23.5000 17.2500
" />
<path d="M33.4105 12.8895
L33.4105 12.8600
" />
<path d="M48.8422 17.2500
L48.8439 17.2500
" />
<path d="M13.2900 16.9900
L16.1500 14.1300
" />
<path d="M16.1500 14.1300
L30.0800 14.1300
" />
<path d="M13.2900 13.9900
L14.4200 12.8600
" />
<path d="M14.4200 12.8600
L30.0800 12.8600
" />
<path d="M13.2900 19.9900
L17.8800 15.4000
" />
<path d="M17.8800 15.4000
L30.0800 15.4000
" />
<path d="M55.9053 12.9100
L57.8440 12.9100
" />
<path d="M55.9053 12.9100
L52.9653 9.9700
" />
<path d="M52.9653 9.9700
L51.6340 9.9700
" />
<path d="M54.6353 9.1000
L57.8440 9.1000
" />
<path d="M52.9653 7.4300
L51.6340 7.4300
" />
<path d="M54.6353 9.1000
L52.9653 7.4300
" />
<path d="M55.6873 20.5100
L52.5173 23.6800
" />
<path d="M57.8540 20.5100
L55.6873 20.5100
" />
<path d="M51.6060 23.6800
L52.5173 23.6800
" />
<path d="M57.8540 24.3200
L54.4173 24.3200
" />
<path d="M51.6060 26.2200
L52.5173 26.2200
" />
<path d="M54.4173 24.3200
L52.5173 26.2200
" />
<path d="M38.8774 15.8691
L39.1309 15.8691
" />
<path d="M39.2006 17.2500
L39.2006 15.9388
" />
<path d="M37.7800 17.2800
L37.7500 17.2500
" />
<path d="M43.2800 26.2200
L43.2500 26.2500
" />
<path d="M34.8044 15.4000
L36.1983 15.4000
" />
<path d="M45.0020 26.2200
L43.2800 26.2200
" />
<path d="M36.6674 15.8691
L36.1983 15.4000
" />
<path d="M39.1309 15.8691
L45.0300 9.9700
" />
<path d="M39.2006 17.2800
L37.7800 17.2800
" />
<path d="M38.8774 15.8691
L36.6674 15.8691
" />
<path d="M39.2006 15.9388
L39.1309 15.8691
" />
<path d="M43.7500 10.3621
L43.7500 8.7100
" />
<path d="M40.7494 12.6800
L41.4321 12.6800
" />
<path d="M41.4321 12.6800
L43.7500 10.3621
" />
<path d="M43.7500 8.7100
L45.0300 7.4300
" />
<path d="M40.7000 21.9200
L41.3827 21.9200
" />
<path d="M43.1427 23.6800
L41.3827 21.9200
" />
<path d="M45.0020 23.6800
L43.1427 23.6800
" />
<path d="M40.7500 17.2500
L47.7500 17.2500
" />
<path d="M21.7747 23.0000
L21.7747 17.8814
" />
<path d="M22.4061 17.2500
L22.4078 17.2500
" />
<path d="M21.7102 22.9108
L21.7994 23.0000
" />
<path d="M21.7747 17.8814
L22.4061 17.2500
" />
<path style="fill:#C83434; fill-opacity:1.0000; stroke:none;fill-rule:evenodd;"
d="M 61.9997,4.8075
63.4925,6.3003
63.4995,6.3173
63.4995,27.2827
63.4925,27.2997
61.9997,28.7925
61.9827,28.7995
5.0173,28.7995
5.0003,28.7925
3.5075,27.2997
3.5005,27.2827
3.5005,26.5000
31.5445,26.5000
31.5644,26.7783
31.5644,26.7783
31.6237,27.0509
31.7139,27.2927
31.7212,27.3123
31.8549,27.5572
31.8549,27.5572
31.9567,27.6932
32.0221,27.7806
32.2194,27.9779
32.4428,28.1451
32.6054,28.2338
32.6877,28.2788
32.6877,28.2788
32.6877,28.2788
32.9491,28.3763
33.2217,28.4356
33.5000,28.4555
33.7783,28.4356
34.0509,28.3763
34.3123,28.2788
34.5572,28.1451
34.7806,27.9779
34.9779,27.7806
35.1451,27.5572
35.2788,27.3123
35.3763,27.0509
35.4356,26.7783
35.4555,26.5000
35.4376,26.2500
42.7444,26.2500
42.7648,26.3925
42.8246,26.5234
42.9189,26.6321
43.0399,26.7100
43.1780,26.7505
43.1780,26.7505
43.3220,26.7505
43.3220,26.7505
43.4601,26.7100
43.5811,26.6321
43.6707,26.5288
43.6871,26.5206
43.6888,26.5205
44.1865,26.5205
44.2034,26.5275
44.2064,26.5312
44.2478,26.5931
44.2478,26.5932
44.3142,26.6375
44.3727,26.6491
44.3727,26.6491
45.6313,26.6491
45.6313,26.6491
45.6898,26.6375
45.7562,26.5932
45.8005,26.5268
45.8121,26.4684
50.7959,26.4684
50.8075,26.5268
50.8075,26.5268
50.8075,26.5268
50.8518,26.5932
50.9182,26.6375
50.9767,26.6491
50.9767,26.6491
52.2353,26.6491
52.2353,26.6491
52.2938,26.6375
52.3602,26.5932
52.3820,26.5604
52.4016,26.5312
52.4168,26.5210
52.4215,26.5205
52.5569,26.5205
52.5569,26.5205
52.6333,26.5000
52.7018,26.4605
52.7578,26.4045
54.5347,24.6275
54.5517,24.6205
56.8817,24.6205
56.8987,24.6275
56.9047,24.6375
56.9251,24.7048
56.9339,24.7212
57.0180,24.8786
57.0180,24.8786
57.0180,24.8786
57.1430,25.0309
57.1430,25.0309
57.1430,25.0310
57.1431,25.0310
57.1431,25.0310
57.2954,25.1560
57.2954,25.1560
57.4692,25.2489
57.6488,25.3034
57.6579,25.3061
57.8540,25.3254
57.8540,25.3254
57.8540,25.3254
58.0501,25.3061
58.0501,25.3061
58.0502,25.3061
58.2388,25.2489
58.4126,25.1560
58.5650,25.0310
58.6900,24.8786
58.7829,24.7048
58.8401,24.5161
58.8401,24.5161
58.8401,24.5161
58.8594,24.3200
58.8594,24.3200
58.8401,24.1238
58.8267,24.0795
58.7829,23.9352
58.6900,23.7614
58.5650,23.6090
58.5649,23.6090
58.5649,23.6090
58.4126,23.4840
58.4126,23.4840
58.4126,23.4840
58.2388,23.3911
58.1218,23.3556
58.0501,23.3339
57.8540,23.3146
57.8540,23.3146
57.6579,23.3339
57.5483,23.3671
57.4692,23.3911
57.4692,23.3911
57.4692,23.3911
57.2954,23.4840
57.2954,23.4840
57.1431,23.6090
57.1430,23.6091
57.0180,23.7614
57.0180,23.7614
56.9251,23.9352
56.9047,24.0025
56.8930,24.0167
56.8817,24.0195
54.3777,24.0195
54.3013,24.0400
54.3013,24.0400
54.3013,24.0400
54.2328,24.0795
52.4230,25.8893
52.4060,25.8963
52.3891,25.8893
52.3861,25.8857
52.3602,25.8468
52.3602,25.8468
52.2938,25.8025
52.2938,25.8025
52.2938,25.8025
52.2354,25.7909
52.2353,25.7909
50.9767,25.7909
50.9766,25.7909
50.9182,25.8025
50.8518,25.8468
50.8518,25.8468
50.8075,25.9132
50.7959,25.9716
50.7959,26.4684
45.8121,26.4684
45.8121,26.4683
45.8121,25.9717
45.8005,25.9132
45.7562,25.8468
45.6898,25.8025
45.6898,25.8025
45.6898,25.8025
45.6314,25.7909
45.6313,25.7909
44.3727,25.7909
44.3726,25.7909
44.3142,25.8025
44.2478,25.8468
44.2478,25.8469
44.2064,25.9088
44.1912,25.9190
44.1865,25.9195
43.6368,25.9195
43.6199,25.9125
43.6187,25.9112
43.5811,25.8679
43.4601,25.7900
43.4600,25.7900
43.4202,25.7783
43.3220,25.7495
43.1780,25.7495
43.1206,25.7664
43.0399,25.7900
43.0399,25.7900
42.9189,25.8679
42.8246,25.9766
42.7648,26.1075
42.7648,26.1075
42.7444,26.2500
35.4376,26.2500
35.4356,26.2217
35.3763,25.9491
35.2788,25.6877
35.1451,25.4428
34.9779,25.2194
34.7806,25.0221
34.7067,24.9668
34.5572,24.8549
34.5572,24.8549
34.3123,24.7212
34.2682,24.7048
34.0509,24.6237
33.8292,24.5755
33.7783,24.5644
33.5000,24.5445
33.2217,24.5644
33.0854,24.5941
32.9491,24.6237
32.9491,24.6237
32.9491,24.6237
32.6877,24.7212
32.4428,24.8549
32.4428,24.8549
32.2194,25.0221
32.0221,25.2194
31.8549,25.4428
31.8549,25.4428
31.7212,25.6877
31.6237,25.9491
31.6237,25.9491
31.6177,25.9766
31.5644,26.2217
31.5445,26.5000
3.5005,26.5000
3.5005,22.8650
12.3800,22.8650
12.3800,22.8650
12.7955,22.8650
12.7800,22.9229
12.7800,23.0571
12.7955,23.1150
12.3800,23.1150
12.3800,23.1150
12.3800,23.7648
12.3887,23.8085
12.3887,23.8085
12.4219,23.8581
12.4219,23.8581
12.4715,23.8913
12.5152,23.9000
13.1650,23.9000
13.1650,23.9000
13.1650,23.4845
13.2229,23.5000
13.3571,23.5000
13.4150,23.4845
13.4150,23.9000
13.4150,23.9000
14.0648,23.9000
14.1085,23.8913
14.1085,23.8913
14.1581,23.8581
14.1581,23.8581
14.1913,23.8085
14.2000,23.7648
14.2000,23.7648
14.2000,23.4212
19.6943,23.4212
19.7030,23.4649
19.7030,23.4649
19.7362,23.5145
19.7362,23.5145
19.7858,23.5477
19.8295,23.5564
20.1003,23.5564
20.1003,23.5564
20.3503,23.5564
20.3503,23.5564
20.6211,23.5564
20.6648,23.5477
20.6648,23.5477
20.7144,23.5145
20.7144,23.5145
20.7476,23.4649
20.7563,23.4212
20.7563,23.4212
20.7563,23.3796
20.7633,23.3626
20.7803,23.3556
21.1692,23.3556
21.1862,23.3626
21.1932,23.3796
21.1932,23.4262
21.2048,23.4846
21.2048,23.4846
21.2048,23.4846
21.2491,23.5510
21.3155,23.5953
21.3740,23.6069
21.3740,23.6069
22.1754,23.6069
22.1754,23.6069
22.2339,23.5953
22.3003,23.5510
22.3446,23.4846
22.3562,23.4261
22.3562,22.5739
22.3446,22.5154
22.3003,22.4490
22.2339,22.4047
22.2339,22.4047
22.2339,22.4047
22.1755,22.3931
22.1754,22.3931
22.0992,22.3931
22.0822,22.3861
22.0752,22.3691
22.0752,22.0442
28.8378,22.0442
28.8465,22.0879
28.8465,22.0879
28.8797,22.1375
28.8797,22.1375
28.9293,22.1707
28.9730,22.1794
29.9550,22.1794
29.9550,22.1794
30.2050,22.1794
30.2050,22.1794
31.1870,22.1794
31.2307,22.1707
31.2307,22.1707
31.2803,22.1375
31.2803,22.1375
31.3135,22.0879
31.3212,22.0492
33.5117,22.0492
33.5233,22.1076
33.5233,22.1076
33.5233,22.1076
33.5676,22.1740
33.6340,22.2183
33.6925,22.2299
33.6925,22.2299
35.9163,22.2299
35.9163,22.2299
35.9748,22.2183
36.0412,22.1740
36.0855,22.1076
36.0971,22.0491
36.0971,21.4509
36.0855,21.3924
36.0412,21.3260
35.9748,21.2817
35.9748,21.2817
35.9748,21.2817
35.9164,21.2701
35.9163,21.2701
33.6925,21.2701
33.6924,21.2701
33.6340,21.2817
33.5677,21.3260
33.5676,21.3260
33.5233,21.3924
33.5117,21.4508
33.5117,22.0492
31.3212,22.0492
31.3222,22.0442
31.3222,22.0442
31.3222,21.8750
31.3222,21.8750
30.2050,21.8750
30.2050,21.8750
30.2050,22.1794
29.9550,22.1794
29.9550,21.8750
29.9550,21.8750
28.8378,21.8750
28.8378,21.8750
28.8378,22.0442
22.0752,22.0442
22.0752,21.6250
28.8378,21.6250
28.8378,21.6250
29.9550,21.6250
29.9550,21.6250
30.2050,21.6250
30.2050,21.6250
31.3222,21.6250
31.3222,21.6250
31.3222,21.4558
31.3135,21.4121
31.3135,21.4121
31.2803,21.3625
31.2803,21.3625
31.2307,21.3293
31.1870,21.3206
30.2050,21.3206
30.2050,21.3206
30.2050,21.6250
29.9550,21.6250
29.9550,21.3206
29.9550,21.3206
28.9730,21.3206
28.9293,21.3293
28.9293,21.3293
28.8797,21.3625
28.8797,21.3625
28.8465,21.4121
28.8378,21.4558
28.8378,21.6250
22.0752,21.6250
22.0752,20.7792
28.7873,20.7792
28.7989,20.8376
28.7989,20.8376
28.7989,20.8376
28.8432,20.9040
28.9096,20.9483
28.9681,20.9599
28.9681,20.9599
31.1919,20.9599
31.1919,20.9599
31.2504,20.9483
31.3168,20.9040
31.3611,20.8376
31.3727,20.7791
31.3727,20.1809
31.3611,20.1224
31.3168,20.0560
31.2504,20.0117
31.2504,20.0117
31.2504,20.0117
31.1920,20.0001
31.1919,20.0001
28.9681,20.0001
28.9680,20.0001
28.9096,20.0117
28.8432,20.0560
28.8432,20.0560
28.7989,20.1224
28.7873,20.1808
28.7873,20.7792
22.0752,20.7792
22.0752,18.0158
22.0822,17.9988
22.3155,17.7655
22.3325,17.7585
22.9030,17.7585
22.9030,17.7585
22.9401,17.7511
22.9406,17.7508
22.9411,17.7507
22.9423,17.7502
22.9424,17.7505
22.9586,17.7472
22.9672,17.7508
22.9677,17.7511
23.0048,17.7585
23.0048,17.7585
23.9952,17.7585
23.9952,17.7585
24.0323,17.7511
24.0745,17.7229
24.1027,17.6807
24.1101,17.6436
24.1101,17.5928
24.1171,17.5758
24.1341,17.5688
24.1511,17.5758
26.0257,19.4505
26.0943,19.4900
26.1707,19.5105
26.2498,19.5105
28.7679,19.5105
28.7848,19.5175
28.7914,19.5298
28.7989,19.5676
28.7989,19.5676
28.7989,19.5676
28.8432,19.6340
28.9096,19.6783
28.9681,19.6899
28.9681,19.6899
31.1919,19.6899
31.1919,19.6899
31.2504,19.6783
31.3168,19.6340
31.3565,19.5744
31.3624,19.5657
31.3631,19.5662
31.3736,19.5557
31.3920,19.5557
31.3998,19.5609
31.9783,20.1394
32.0468,20.1789
32.1232,20.1994
33.4877,20.1994
33.5047,20.2064
33.5117,20.2234
33.5117,20.7792
33.5233,20.8376
33.5233,20.8376
33.5233,20.8376
33.5676,20.9040
33.6340,20.9483
33.6925,20.9599
33.6925,20.9599
35.9163,20.9599
35.9163,20.9599
35.9748,20.9483
36.0412,20.9040
36.0855,20.8376
36.0971,20.7791
36.0971,20.2234
36.1041,20.2064
36.1211,20.1994
37.3492,20.1994
37.3662,20.2064
38.5740,21.4143
38.5811,21.4313
38.5806,21.4360
38.5691,21.4938
38.5691,22.3462
38.5807,22.4046
38.5807,22.4046
38.5807,22.4046
38.6250,22.4710
38.6914,22.5153
38.7499,22.5269
38.7499,22.5269
39.5513,22.5269
39.5513,22.5269
39.6098,22.5153
39.6762,22.4710
39.7205,22.4046
39.7321,22.3461
39.7321,22.2996
39.7391,22.2826
39.7561,22.2756
40.0945,22.2756
40.1115,22.2826
40.1185,22.2996
40.1185,22.3462
40.1301,22.4046
40.1301,22.4046
40.1301,22.4046
40.1744,22.4710
40.2408,22.5153
40.2993,22.5269
40.2993,22.5269
41.1007,22.5269
41.1007,22.5269
41.1592,22.5153
41.2256,22.4710
41.2699,22.4046
41.2815,22.3461
41.2815,22.3017
41.2885,22.2847
41.3055,22.2777
41.3225,22.2847
42.9022,23.8645
42.9022,23.8645
42.9377,23.9000
42.9582,23.9205
43.0267,23.9600
43.1031,23.9805
44.1865,23.9805
44.2034,23.9875
44.2064,23.9912
44.2390,24.0400
44.2478,24.0532
44.3142,24.0975
44.3727,24.1091
44.3727,24.1091
45.6313,24.1091
45.6313,24.1091
45.6898,24.0975
45.7562,24.0532
45.8005,23.9868
45.8121,23.9284
50.7959,23.9284
50.8075,23.9868
50.8075,23.9868
50.8075,23.9868
50.8518,24.0532
50.9182,24.0975
50.9767,24.1091
50.9767,24.1091
52.2353,24.1091
52.2353,24.1091
52.2938,24.0975
52.3602,24.0532
52.3845,24.0167
52.4016,23.9912
52.4168,23.9810
52.4215,23.9805
52.5569,23.9805
52.5569,23.9805
52.6333,23.9600
52.7018,23.9205
52.7578,23.8645
55.8047,20.8175
55.8217,20.8105
56.8817,20.8105
56.8987,20.8175
56.9047,20.8275
56.9251,20.8948
56.9574,20.9551
57.0180,21.0686
57.0180,21.0686
57.0180,21.0686
57.1430,21.2209
57.1430,21.2209
57.1430,21.2210
57.1431,21.2210
57.1431,21.2210
57.2954,21.3460
57.2954,21.3460
57.4692,21.4389
57.6488,21.4934
57.6579,21.4961
57.8540,21.5154
57.8540,21.5154
57.8540,21.5154
58.0501,21.4961
58.0501,21.4961
58.0502,21.4961
58.2388,21.4389
58.4126,21.3460
58.5650,21.2210
58.6900,21.0686
58.7829,20.8948
58.8401,20.7061
58.8401,20.7061
58.8401,20.7061
58.8594,20.5100
58.8594,20.5100
58.8401,20.3138
58.8287,20.2761
58.7829,20.1252
58.6900,19.9514
58.6194,19.8654
58.5650,19.7991
58.5650,19.7990
58.5650,19.7990
58.5649,19.7990
58.5649,19.7990
58.4126,19.6740
58.4126,19.6740
58.4126,19.6740
58.2388,19.5811
58.1185,19.5446
58.0501,19.5239
57.8540,19.5046
57.8540,19.5046
57.6579,19.5239
57.5483,19.5571
57.4692,19.5811
57.4692,19.5811
57.4692,19.5811
57.2954,19.6740
57.2954,19.6740
57.1431,19.7990
57.1430,19.7991
57.0180,19.9514
57.0180,19.9514
56.9251,20.1252
56.9047,20.1925
56.8930,20.2067
56.8817,20.2095
55.6477,20.2095
55.6273,20.2150
55.5713,20.2300
55.5028,20.2695
52.4230,23.3493
52.4060,23.3563
52.3891,23.3493
52.3861,23.3457
52.3602,23.3068
52.3602,23.3068
52.2938,23.2625
52.2938,23.2625
52.2938,23.2625
52.2354,23.2509
52.2353,23.2509
50.9767,23.2509
50.9766,23.2509
50.9182,23.2625
50.8518,23.3068
50.8518,23.3068
50.8075,23.3732
50.7959,23.4316
50.7959,23.9284
45.8121,23.9284
45.8121,23.9283
45.8121,23.4317
45.8005,23.3732
45.7562,23.3068
45.6898,23.2625
45.6898,23.2625
45.6898,23.2625
45.6314,23.2509
45.6313,23.2509
44.3727,23.2509
44.3726,23.2509
44.3142,23.2625
44.2478,23.3068
44.2478,23.3069
44.2064,23.3688
44.1912,23.3790
44.1865,23.3795
43.2771,23.3795
43.2601,23.3725
42.4146,22.5269
41.5672,21.6795
41.4987,21.6400
41.4987,21.6400
41.4987,21.6400
41.4428,21.6250
41.4223,21.6195
41.4223,21.6195
41.3055,21.6195
41.2885,21.6125
41.2815,21.5955
41.2815,21.4939
41.2815,21.4938
41.2699,21.4354
41.2699,21.4354
41.2256,21.3690
41.1592,21.3247
41.1592,21.3247
41.1592,21.3247
41.1008,21.3131
41.1007,21.3131
40.2993,21.3131
40.2992,21.3131
40.2408,21.3247
40.1745,21.3690
40.1744,21.3690
40.1301,21.4354
40.1185,21.4938
40.1185,21.5404
40.1115,21.5574
40.0945,21.5644
39.7561,21.5644
39.7391,21.5574
39.7321,21.5404
39.7321,21.4939
39.7321,21.4938
39.7205,21.4354
39.7205,21.4354
39.6762,21.3690
39.6098,21.3247
39.6098,21.3247
39.6098,21.3247
39.5514,21.3131
39.5513,21.3131
39.3327,21.3131
39.3157,21.3061
38.2500,20.2404
38.2430,20.2234
38.2500,20.2064
38.2670,20.1994
47.0855,20.1994
47.0855,20.1994
47.1619,20.1789
47.2304,20.1394
47.2864,20.0834
49.4621,17.9077
49.4914,17.8569
49.5016,17.8392
49.5221,17.7628
49.5221,17.5881
49.5016,17.5117
49.4621,17.4432
49.4621,17.4432
49.4621,17.4432
49.4593,17.4404
49.4523,17.4235
49.4523,16.8564
49.4523,16.8564
49.4449,16.8193
49.4167,16.7771
49.3745,16.7489
49.3745,16.7489
49.3745,16.7489
49.3374,16.7415
49.3374,16.7415
48.3470,16.7415
48.3470,16.7415
48.3099,16.7489
48.3098,16.7489
48.3094,16.7492
48.3089,16.7493
48.3077,16.7498
48.3076,16.7495
48.2914,16.7528
48.2828,16.7492
48.2824,16.7489
48.2823,16.7489
48.2452,16.7415
48.2452,16.7415
47.2548,16.7415
47.2548,16.7415
47.2177,16.7489
47.1755,16.7771
47.1755,16.7771
47.1473,16.8193
47.1399,16.8564
47.1399,16.9255
47.1329,16.9425
47.1159,16.9495
41.3555,16.9495
41.3385,16.9425
41.3315,16.9255
41.3315,16.8239
41.3315,16.8238
41.3248,16.7900
41.3199,16.7654
41.2756,16.6990
41.2092,16.6547
41.2092,16.6547
41.2092,16.6547
41.1508,16.6431
41.1507,16.6431
40.3493,16.6431
40.3492,16.6431
40.2908,16.6547
40.2244,16.6990
40.2244,16.6990
40.1801,16.7654
40.1685,16.8238
40.1685,16.8704
40.1615,16.8874
40.1445,16.8944
39.8061,16.8944
39.7891,16.8874
39.7821,16.8704
39.7821,16.8239
39.7821,16.8238
39.7754,16.7900
39.7705,16.7654
39.7262,16.6990
39.6598,16.6547
39.6598,16.6547
39.6598,16.6547
39.6014,16.6431
39.6013,16.6431
39.5251,16.6431
39.5081,16.6361
39.5011,16.6191
39.5011,15.9338
39.5081,15.9168
45.0188,10.4061
45.0358,10.3991
45.6593,10.3991
45.6593,10.3991
45.7178,10.3875
45.7842,10.3432
45.8285,10.2768
45.8401,10.2184
50.8239,10.2184
50.8355,10.2768
50.8355,10.2768
50.8355,10.2768
50.8798,10.3432
50.9462,10.3875
51.0047,10.3991
51.0047,10.3991
52.2633,10.3991
52.2633,10.3991
52.3218,10.3875
52.3882,10.3432
52.4167,10.3004
52.4296,10.2812
52.4448,10.2710
52.4495,10.2705
52.8309,10.2705
52.8479,10.2775
55.6648,13.0945
55.6648,13.0945
55.6942,13.1238
55.7208,13.1505
55.7893,13.1900
55.8657,13.2105
55.9449,13.2105
56.8717,13.2105
56.8887,13.2175
56.8947,13.2275
56.9151,13.2948
56.9406,13.3425
57.0080,13.4686
57.0080,13.4686
57.0080,13.4686
57.1330,13.6209
57.1330,13.6209
57.1330,13.6210
57.1331,13.6210
57.1331,13.6210
57.2854,13.7460
57.2854,13.7460
57.4592,13.8389
57.6388,13.8934
57.6479,13.8961
57.8440,13.9154
57.8440,13.9154
57.8440,13.9154
58.0401,13.8961
58.0401,13.8961
58.0402,13.8961
58.2288,13.8389
58.4026,13.7460
58.5550,13.6210
58.6800,13.4686
58.7729,13.2948
58.8301,13.1062
58.8301,13.1061
58.8301,13.1061
58.8494,12.9100
58.8494,12.9100
58.8301,12.7139
58.8274,12.7048
58.7729,12.5252
58.6800,12.3514
58.6561,12.3223
58.5550,12.1991
58.5550,12.1991
58.5550,12.1990
58.5549,12.1990
58.5549,12.1990
58.4026,12.0740
58.4026,12.0740
58.4026,12.0740
58.2288,11.9811
58.1192,11.9479
58.0401,11.9239
57.8440,11.9046
57.8440,11.9046
57.6479,11.9239
57.5448,11.9552
57.4592,11.9811
57.4592,11.9811
57.4592,11.9811
57.2854,12.0740
57.2854,12.0740
57.1331,12.1990
57.1330,12.1991
57.0080,12.3514
57.0080,12.3514
56.9151,12.5252
56.8947,12.5925
56.8830,12.6067
56.8717,12.6095
56.0397,12.6095
56.0227,12.6025
54.5958,11.1755
53.1498,9.7295
53.0813,9.6900
53.0813,9.6900
53.0813,9.6900
53.0328,9.6770
53.0049,9.6695
53.0049,9.6695
52.4495,9.6695
52.4326,9.6625
52.4296,9.6588
52.3882,9.5969
52.3882,9.5968
52.3882,9.5968
52.3218,9.5525
52.3218,9.5525
52.3218,9.5525
52.2634,9.5409
52.2633,9.5409
51.0047,9.5409
51.0046,9.5409
50.9462,9.5525
50.8798,9.5968
50.8798,9.5968
50.8355,9.6632
50.8239,9.7216
50.8239,10.2184
45.8401,10.2184
45.8401,10.2183
45.8401,9.7217
45.8285,9.6632
45.7842,9.5968
45.7178,9.5525
45.7178,9.5525
45.7178,9.5525
45.6594,9.5409
45.6593,9.5409
44.4007,9.5409
44.4006,9.5409
44.3422,9.5525
44.2758,9.5968
44.2758,9.5968
44.2315,9.6632
44.2199,9.7216
44.2199,10.2184
44.2304,10.2710
44.2315,10.2768
44.2344,10.2812
44.2473,10.3004
44.2509,10.3184
44.2443,10.3307
44.0675,10.5075
44.0505,10.5145
44.0336,10.5075
44.0265,10.4905
44.0295,10.4796
44.0294,10.4795
44.0296,10.4790
44.0298,10.4785
44.0300,10.4781
44.0505,10.4017
44.0505,10.3225
44.0505,8.8444
44.0575,8.8274
45.0188,7.8661
45.0358,7.8591
45.6593,7.8591
45.6593,7.8591
45.7178,7.8475
45.7842,7.8032
45.8285,7.7368
45.8401,7.6784
50.8239,7.6784
50.8355,7.7368
50.8355,7.7368
50.8355,7.7368
50.8798,7.8032
50.9462,7.8475
51.0047,7.8591
51.0047,7.8591
52.2633,7.8591
52.2633,7.8591
52.3218,7.8475
52.3882,7.8032
52.4292,7.7417
52.4296,7.7412
52.4448,7.7310
52.4495,7.7305
52.8309,7.7305
52.8479,7.7375
54.4508,9.3405
54.5193,9.3800
54.5957,9.4005
54.6749,9.4005
56.8717,9.4005
56.8887,9.4075
56.8947,9.4175
56.9151,9.4848
56.9254,9.5040
57.0080,9.6586
57.0080,9.6586
57.0080,9.6586
57.1330,9.8109
57.1330,9.8109
57.1330,9.8110
57.1331,9.8110
57.1331,9.8110
57.2665,9.9205
57.2854,9.9360
57.4592,10.0289
57.6327,10.0815
57.6479,10.0861
57.8440,10.1054
57.8440,10.1054
57.8440,10.1054
58.0401,10.0861
58.0401,10.0861
58.0402,10.0861
58.2288,10.0289
58.4026,9.9360
58.5550,9.8110
58.6800,9.6586
58.7729,9.4848
58.8301,9.2962
58.8301,9.2961
58.8301,9.2961
58.8494,9.1000
58.8494,9.1000
58.8301,8.9039
58.8121,8.8444
58.7729,8.7152
58.6800,8.5414
58.6711,8.5306
58.5550,8.3891
58.5550,8.3891
58.5550,8.3890
58.5549,8.3890
58.5549,8.3890
58.4026,8.2640
58.4026,8.2640
58.4026,8.2640
58.2288,8.1711
58.1192,8.1379
58.0401,8.1139
57.8440,8.0946
57.8440,8.0946
57.6479,8.1139
57.5383,8.1471
57.4592,8.1711
57.4592,8.1711
57.4592,8.1711
57.2854,8.2640
57.2854,8.2640
57.1331,8.3890
57.1330,8.3891
57.0080,8.5414
57.0080,8.5414
56.9151,8.7152
56.8947,8.7825
56.8830,8.7967
56.8717,8.7995
54.7697,8.7995
54.7527,8.7925
54.0226,8.0623
53.1498,7.1895
53.0813,7.1500
53.0813,7.1500
53.0813,7.1500
53.0328,7.1370
53.0049,7.1295
53.0049,7.1295
52.4495,7.1295
52.4326,7.1225
52.4296,7.1188
52.3882,7.0569
52.3882,7.0568
52.3882,7.0568
52.3218,7.0125
52.3218,7.0125
52.3218,7.0125
52.2634,7.0009
52.2633,7.0009
51.0047,7.0009
51.0046,7.0009
50.9462,7.0125
50.8798,7.0568
50.8798,7.0568
50.8355,7.1232
50.8239,7.1816
50.8239,7.6784
45.8401,7.6784
45.8401,7.6783
45.8401,7.1817
45.8285,7.1232
45.7842,7.0568
45.7178,7.0125
45.7178,7.0125
45.7178,7.0125
45.6594,7.0009
45.6593,7.0009
44.4007,7.0009
44.4006,7.0009
44.3422,7.0125
44.2758,7.0568
44.2758,7.0568
44.2315,7.1232
44.2199,7.1816
44.2199,7.6784
44.2304,7.7310
44.2315,7.7368
44.2454,7.7576
44.2473,7.7604
44.2509,7.7784
44.2443,7.7907
43.5655,8.4695
43.5655,8.4695
43.5095,8.5255
43.4700,8.5940
43.4495,8.6704
43.4495,10.2277
43.4425,10.2447
41.3719,12.3153
41.3549,12.3223
41.3379,12.3153
41.3309,12.2983
41.3309,12.2539
41.3309,12.2538
41.3193,12.1954
41.3193,12.1954
41.2750,12.1290
41.2086,12.0847
41.2086,12.0847
41.2086,12.0847
41.1502,12.0731
41.1501,12.0731
40.3487,12.0731
40.3486,12.0731
40.2902,12.0847
40.2238,12.1290
40.2238,12.1290
40.1795,12.1954
40.1679,12.2538
40.1679,12.3004
40.1609,12.3174
40.1439,12.3244
39.8055,12.3244
39.7885,12.3174
39.7815,12.3004
39.7815,12.2539
39.7815,12.2538
39.7699,12.1954
39.7699,12.1954
39.7256,12.1290
39.6592,12.0847
39.6592,12.0847
39.6592,12.0847
39.6008,12.0731
39.6007,12.0731
38.7993,12.0731
38.7992,12.0731
38.7408,12.0847
38.6745,12.1290
38.6744,12.1290
38.6301,12.1954
38.6185,12.2538
38.6185,12.3555
38.6115,12.3725
38.5945,12.3795
36.3387,12.3795
36.3183,12.3850
36.2623,12.4000
36.2438,12.4107
36.1998,12.4360
36.1976,12.4373
36.1938,12.4395
36.1938,12.4395
36.1242,12.5091
36.1072,12.5162
36.0902,12.5091
36.0870,12.5042
36.0868,12.5043
36.0412,12.4360
36.0412,12.4360
35.9748,12.3917
35.9748,12.3917
35.9748,12.3917
35.9164,12.3801
35.9163,12.3801
33.6925,12.3801
33.6924,12.3801
33.6340,12.3917
33.5677,12.4360
33.5676,12.4360
33.5448,12.4703
33.5233,12.5024
33.5233,12.5024
33.5220,12.5043
33.5213,12.5038
33.5108,12.5143
33.4924,12.5143
33.4846,12.5091
31.9408,10.9653
30.3550,9.3795
30.2974,9.3463
30.2974,9.3462
30.2973,9.3462
30.2865,9.3400
30.2101,9.3195
25.6053,9.3195
25.5883,9.3125
25.5817,9.3002
25.5809,9.2961
25.5793,9.2878
25.5550,9.2515
25.5350,9.2214
25.5350,9.2214
25.5350,9.2214
25.4686,9.1771
25.4686,9.1771
25.4686,9.1771
25.4102,9.1655
25.4101,9.1655
24.7714,9.1655
24.7544,9.1585
24.7474,9.1415
24.7474,7.7417
24.7544,7.7247
24.7714,7.7177
24.9492,7.7177
24.9492,7.7177
25.0077,7.7061
25.0741,7.6618
25.1184,7.5954
25.1300,7.5369
25.1300,7.2500
31.5445,7.2500
31.5644,7.5283
31.5663,7.5370
31.6237,7.8009
31.7212,8.0623
31.7212,8.0623
31.8314,8.2640
31.8549,8.3072
32.0221,8.5306
32.2194,8.7279
32.4428,8.8951
32.6054,8.9838
32.6877,9.0288
32.6877,9.0288
32.6877,9.0288
32.9491,9.1263
33.2217,9.1856
33.5000,9.2055
33.7783,9.1856
34.0509,9.1263
34.3123,9.0288
34.5572,8.8951
34.7806,8.7279
34.9779,8.5306
35.1451,8.3072
35.2788,8.0623
35.3763,7.8009
35.4356,7.5283
35.4555,7.2500
35.4356,6.9717
35.3763,6.6991
35.2788,6.4377
35.2658,6.4139
35.2338,6.3554
35.1451,6.1928
34.9779,5.9694
34.7806,5.7721
34.6835,5.6995
34.5572,5.6049
34.5572,5.6049
34.3123,5.4712
34.3123,5.4712
34.0509,5.3737
33.8292,5.3255
33.7783,5.3144
33.5000,5.2945
33.2217,5.3144
33.0854,5.3441
32.9491,5.3737
32.9491,5.3737
32.9491,5.3737
32.6877,5.4712
32.4428,5.6049
32.4428,5.6049
32.2194,5.7721
32.0221,5.9694
31.8549,6.1928
31.8549,6.1928
31.7212,6.4377
31.6237,6.6991
31.5644,6.9717
31.5445,7.2500
25.1300,7.2500
25.1300,6.5831
25.1184,6.5246
25.0741,6.4582
25.0077,6.4139
25.0077,6.4139
25.0077,6.4139
24.9493,6.4023
24.9492,6.4023
23.9446,6.4023
23.9445,6.4023
23.8861,6.4139
23.8197,6.4582
23.8197,6.4582
23.7754,6.5246
23.7638,6.5830
23.7638,6.6296
23.7568,6.6466
23.7398,6.6536
23.6557,6.6536
23.6387,6.6466
23.6317,6.6296
23.6317,6.5880
23.6230,6.5443
23.6230,6.5443
23.5898,6.4947
23.5898,6.4947
23.5402,6.4615
23.4965,6.4528
23.1241,6.4528
23.1241,6.4528
23.1241,7.6672
23.1241,7.6672
23.4965,7.6672
23.5402,7.6585
23.5402,7.6585
23.5898,7.6253
23.5898,7.6253
23.6230,7.5757
23.6317,7.5320
23.6317,7.5320
23.6317,7.4904
23.6387,7.4734
23.6557,7.4664
23.7398,7.4664
23.7568,7.4734
23.7638,7.4904
23.7638,7.5370
23.7754,7.5954
23.7754,7.5954
23.7754,7.5954
23.8197,7.6618
23.8861,7.7061
23.9446,7.7177
24.1224,7.7177
24.1394,7.7247
24.1464,7.7417
24.1464,9.1415
24.1394,9.1585
24.1224,9.1655
24.0498,9.1655
23.9914,9.1771
23.9250,9.2214
23.9250,9.2214
23.8807,9.2878
23.8691,9.3462
23.8691,9.8938
23.8807,9.9522
23.8807,9.9522
23.8807,9.9522
23.9250,10.0186
23.9914,10.0629
24.0499,10.0745
24.0499,10.0745
25.4101,10.0745
25.4101,10.0745
25.4686,10.0629
25.5350,10.0186
25.5793,9.9522
25.5817,9.9398
25.5919,9.9245
25.6053,9.9205
30.0361,9.9205
30.0531,9.9275
32.9833,12.8578
32.9903,12.8747
32.9833,12.8917
32.5326,13.3425
32.5156,13.3495
32.3780,13.3495
32.3206,13.3664
32.2399,13.3900
32.2399,13.3900
32.1189,13.4679
32.0246,13.5766
31.9648,13.7075
31.9648,13.7075
31.9444,13.8500
31.9648,13.9925
32.0246,14.1234
32.1189,14.2321
32.2399,14.3100
32.3780,14.3505
32.3780,14.3505
32.5220,14.3505
32.5220,14.3505
32.6601,14.3100
32.7811,14.2321
32.8754,14.1234
32.9352,13.9925
32.9556,13.8500
32.9472,13.7914
32.9518,13.7736
32.9540,13.7710
33.4962,13.2287
33.5132,13.2217
33.5302,13.2287
33.5332,13.2324
33.5676,13.2840
33.6340,13.3283
33.6925,13.3399
33.6925,13.3399
35.9163,13.3399
35.9163,13.3399
35.9748,13.3283
36.0412,13.2840
36.0855,13.2176
36.0915,13.1875
36.0930,13.1798
36.1032,13.1645
36.1165,13.1605
36.2379,13.1605
36.2379,13.1605
36.3143,13.1400
36.3828,13.1005
36.4388,13.0445
36.4957,12.9875
36.5127,12.9805
38.5945,12.9805
38.6115,12.9875
38.6185,13.0045
38.6185,13.1062
38.6301,13.1646
38.6301,13.1646
38.6301,13.1646
38.6744,13.2310
38.7408,13.2753
38.7993,13.2869
38.7993,13.2869
39.6007,13.2869
39.6007,13.2869
39.6592,13.2753
39.7256,13.2310
39.7699,13.1646
39.7815,13.1061
39.7815,13.0596
39.7885,13.0426
39.8055,13.0356
40.1439,13.0356
40.1609,13.0426
40.1679,13.0596
40.1679,13.1062
40.1795,13.1646
40.1795,13.1646
40.1795,13.1646
40.2238,13.2310
40.2902,13.2753
40.3487,13.2869
40.3487,13.2869
41.1501,13.2869
41.1501,13.2869
41.2086,13.2753
41.2750,13.2310
41.3193,13.1646
41.3309,13.1061
41.3309,13.0045
41.3379,12.9875
41.3549,12.9805
41.4717,12.9805
41.4717,12.9805
41.5481,12.9600
41.5485,12.9598
41.5488,12.9597
41.5495,12.9594
41.5496,12.9596
41.5667,12.9574
41.5813,12.9685
41.5837,12.9867
41.5775,12.9975
39.0135,15.5616
38.9965,15.5686
36.8018,15.5686
36.7848,15.5616
36.3828,15.1595
36.3143,15.1200
36.3143,15.1200
36.3143,15.1200
36.2658,15.1070
36.2379,15.0995
36.2379,15.0995
36.1165,15.0995
36.0996,15.0925
36.0930,15.0802
36.0855,15.0424
36.0855,15.0424
36.0412,14.9760
35.9748,14.9317
35.9748,14.9317
35.9748,14.9317
35.9164,14.9201
35.9163,14.9201
33.6925,14.9201
33.6924,14.9201
33.6340,14.9317
33.5677,14.9760
33.5676,14.9760
33.5233,15.0424
33.5117,15.1008
33.5117,15.6992
33.5233,15.7576
33.5233,15.7576
33.5233,15.7576
33.5676,15.8240
33.6340,15.8683
33.6925,15.8799
33.6925,15.8799
35.9163,15.8799
35.9163,15.8799
35.9748,15.8683
36.0412,15.8240
36.0855,15.7576
36.0855,15.7576
36.0868,15.7557
36.0875,15.7562
36.0980,15.7457
36.1164,15.7457
36.1242,15.7509
36.4829,16.1096
36.5514,16.1491
36.6278,16.1696
38.8378,16.1696
38.8761,16.1696
38.8931,16.1766
38.9001,16.1936
38.9001,16.6191
38.8931,16.6361
38.8761,16.6431
38.7998,16.6431
38.7414,16.6547
38.6750,16.6990
38.6750,16.6990
38.6307,16.7654
38.6191,16.8238
38.6191,16.9555
38.6121,16.9725
38.5951,16.9795
38.1888,16.9795
38.1719,16.9725
38.1707,16.9712
38.1696,16.9700
38.0811,16.8679
38.0811,16.8679
37.9601,16.7900
37.9600,16.7900
37.9159,16.7771
37.8220,16.7495
37.6780,16.7495
37.6240,16.7654
37.5399,16.7900
37.5399,16.7900
37.4189,16.8679
37.3246,16.9766
37.2686,17.0994
37.2648,17.1075
37.2444,17.2500
37.2648,17.3925
37.3246,17.5234
37.4189,17.6321
37.5399,17.7100
37.6780,17.7505
37.6780,17.7505
37.8220,17.7505
37.8220,17.7505
37.9601,17.7100
38.0811,17.6321
38.1187,17.5888
38.1351,17.5806
38.1368,17.5805
38.5951,17.5805
38.6121,17.5875
38.6191,17.6045
38.6191,17.6762
38.6307,17.7346
38.6307,17.7346
38.6307,17.7346
38.6750,17.8010
38.7414,17.8453
38.7999,17.8569
38.7999,17.8569
39.6013,17.8569
39.6013,17.8569
39.6598,17.8453
39.7262,17.8010
39.7705,17.7346
39.7821,17.6761
39.7821,17.6296
39.7891,17.6126
39.8061,17.6056
40.1445,17.6056
40.1615,17.6126
40.1685,17.6296
40.1685,17.6762
40.1801,17.7346
40.1801,17.7346
40.1801,17.7346
40.2244,17.8010
40.2908,17.8453
40.3493,17.8569
40.3493,17.8569
41.1507,17.8569
41.1507,17.8569
41.2092,17.8453
41.2756,17.8010
41.3199,17.7346
41.3315,17.6761
41.3315,17.5745
41.3385,17.5575
41.3555,17.5505
47.1159,17.5505
47.1329,17.5575
47.1399,17.5745
47.1399,17.6436
47.1473,17.6807
47.1473,17.6807
47.1473,17.6807
47.1755,17.7229
47.2177,17.7511
47.2548,17.7585
47.2548,17.7585
48.2452,17.7585
48.2452,17.7585
48.2823,17.7511
48.2828,17.7508
48.2833,17.7507
48.2845,17.7502
48.2846,17.7505
48.3008,17.7472
48.3094,17.7508
48.3099,17.7511
48.3470,17.7585
48.7034,17.7585
48.7204,17.7655
48.7274,17.7825
48.7204,17.7995
46.9285,19.5914
46.9115,19.5984
36.1086,19.5984
36.0916,19.5914
36.0846,19.5744
36.0851,19.5697
36.0930,19.5297
36.0971,19.5091
36.0971,18.9109
36.0855,18.8524
36.0412,18.7860
35.9748,18.7417
35.9748,18.7417
35.9748,18.7417
35.9164,18.7301
35.9163,18.7301
33.6925,18.7301
33.6924,18.7301
33.6340,18.7417
33.5677,18.7860
33.5676,18.7860
33.5233,18.8524
33.5117,18.9108
33.5117,19.5092
33.5237,19.5697
33.5202,19.5877
33.5049,19.5979
33.5002,19.5984
32.2972,19.5984
32.2802,19.5914
31.8989,19.2100
31.8919,19.1930
31.8989,19.1761
32.3674,18.7075
32.3844,18.7005
32.5220,18.7005
32.5220,18.7005
32.6601,18.6600
32.7811,18.5821
32.8754,18.4734
32.9352,18.3425
32.9500,18.2392
33.5117,18.2392
33.5233,18.2976
33.5233,18.2976
33.5233,18.2976
33.5676,18.3640
33.6340,18.4083
33.6925,18.4199
33.6925,18.4199
35.9163,18.4199
35.9163,18.4199
35.9748,18.4083
36.0412,18.3640
36.0855,18.2976
36.0971,18.2391
36.0971,17.6409
36.0855,17.5824
36.0412,17.5160
35.9748,17.4717
35.9748,17.4717
35.9748,17.4717
35.9164,17.4601
35.9163,17.4601
33.6925,17.4601
33.6924,17.4601
33.6340,17.4717
33.5677,17.5160
33.5676,17.5160
33.5233,17.5824
33.5117,17.6408
33.5117,18.2392
32.9500,18.2392
32.9556,18.2000
32.9352,18.0575
32.8754,17.9266
32.7811,17.8179
32.7811,17.8179
32.6601,17.7400
32.6600,17.7400
32.6017,17.7229
32.5220,17.6995
32.3780,17.6995
32.3424,17.7100
32.2399,17.7400
32.2399,17.7400
32.1189,17.8179
32.0246,17.9266
31.9648,18.0575
31.9648,18.0575
31.9638,18.0650
31.9444,18.2000
31.9528,18.2586
31.9482,18.2764
31.9460,18.2790
31.3864,18.8386
31.3694,18.8457
31.3524,18.8386
31.3495,18.8350
31.3168,18.7860
31.2504,18.7417
31.2504,18.7417
31.2504,18.7417
31.1920,18.7301
31.1919,18.7301
28.9681,18.7301
28.9680,18.7301
28.9096,18.7417
28.8432,18.7860
28.8432,18.7860
28.7989,18.8524
28.7914,18.8902
28.7812,18.9055
28.7679,18.9095
26.3447,18.9095
26.3277,18.9025
25.6594,18.2342
28.8378,18.2342
28.8465,18.2779
28.8465,18.2779
28.8797,18.3275
28.8797,18.3275
28.9293,18.3607
28.9730,18.3694
29.9550,18.3694
29.9550,18.3694
30.2050,18.3694
30.2050,18.3694
31.1870,18.3694
31.2307,18.3607
31.2307,18.3607
31.2803,18.3275
31.2803,18.3275
31.3135,18.2779
31.3222,18.2342
31.3222,18.2342
31.3222,18.0650
31.3222,18.0650
30.2050,18.0650
30.2050,18.0650
30.2050,18.3694
29.9550,18.3694
29.9550,18.0650
29.9550,18.0650
28.8378,18.0650
28.8378,18.0650
28.8378,18.2342
25.6594,18.2342
25.4240,17.9988
25.2402,17.8150
28.8378,17.8150
28.8378,17.8150
29.9550,17.8150
29.9550,17.8150
30.2050,17.8150
30.2050,17.8150
31.3222,17.8150
31.3222,17.8150
31.3222,17.6458
31.3135,17.6021
31.3135,17.6021
31.2803,17.5525
31.2803,17.5525
31.2307,17.5193
31.1870,17.5106
30.2050,17.5106
30.2050,17.5106
30.2050,17.8150
29.9550,17.8150
29.9550,17.5106
29.9550,17.5106
28.9730,17.5106
28.9293,17.5193
28.9293,17.5193
28.8797,17.5525
28.8797,17.5525
28.8465,17.6021
28.8378,17.6458
28.8378,17.8150
25.2402,17.8150
24.4348,17.0095
24.4348,17.0095
24.4348,17.0095
24.4009,16.9900
24.4009,16.9900
24.3662,16.9700
24.3662,16.9700
24.3662,16.9700
24.3446,16.9642
28.8378,16.9642
28.8465,17.0079
28.8465,17.0079
28.8797,17.0575
28.8797,17.0575
28.9293,17.0907
28.9730,17.0994
29.9550,17.0994
29.9550,17.0994
30.2050,17.0994
30.2050,17.0994
31.1870,17.0994
31.2307,17.0907
31.2307,17.0907
31.2803,17.0575
31.2803,17.0575
31.3135,17.0079
31.3212,16.9692
33.5117,16.9692
33.5233,17.0276
33.5233,17.0276
33.5233,17.0276
33.5676,17.0940
33.6340,17.1383
33.6925,17.1499
33.6925,17.1499
35.9163,17.1499
35.9163,17.1499
35.9748,17.1383
36.0412,17.0940
36.0855,17.0276
36.0971,16.9691
36.0971,16.3709
36.0855,16.3124
36.0412,16.2460
35.9748,16.2017
35.9748,16.2017
35.9748,16.2017
35.9164,16.1901
35.9163,16.1901
33.6925,16.1901
33.6924,16.1901
33.6340,16.2017
33.5677,16.2460
33.5676,16.2461
33.5233,16.3124
33.5117,16.3708
33.5117,16.9692
31.3212,16.9692
31.3222,16.9642
31.3222,16.9642
31.3222,16.7950
31.3222,16.7950
30.2050,16.7950
30.2050,16.7950
30.2050,17.0994
29.9550,17.0994
29.9550,16.7950
29.9550,16.7950
28.8378,16.7950
28.8378,16.7950
28.8378,16.9642
24.3446,16.9642
24.3122,16.9555
24.2898,16.9495
24.2898,16.9495
24.1341,16.9495
24.1171,16.9425
24.1101,16.9255
24.1101,16.8564
24.1101,16.8564
24.1027,16.8193
24.0745,16.7771
24.0323,16.7489
24.0323,16.7489
24.0323,16.7489
23.9952,16.7415
23.9952,16.7415
23.0048,16.7415
23.0048,16.7415
22.9677,16.7489
22.9676,16.7489
22.9672,16.7492
22.9667,16.7493
22.9655,16.7498
22.9654,16.7495
22.9492,16.7528
22.9406,16.7492
22.9402,16.7489
22.9401,16.7489
22.9030,16.7415
22.9030,16.7415
21.9126,16.7415
21.9126,16.7415
21.8755,16.7489
21.8333,16.7771
21.8333,16.7771
21.8051,16.8193
21.7977,16.8564
21.7977,17.4235
21.7907,17.4404
21.5902,17.6409
21.5902,17.6409
21.5342,17.6969
21.4947,17.7654
21.4851,17.8010
21.4749,17.8392
21.4742,17.8418
21.4742,22.3691
21.4672,22.3861
21.4502,22.3931
21.3739,22.3931
21.3155,22.4047
21.2492,22.4490
21.2491,22.4490
21.2048,22.5154
21.1932,22.5738
21.1932,22.6204
21.1862,22.6374
21.1692,22.6444
20.7803,22.6444
20.7633,22.6374
20.7563,22.6204
20.7563,22.5788
20.7476,22.5351
20.7476,22.5351
20.7144,22.4855
20.7144,22.4855
20.6648,22.4523
20.6211,22.4436
20.3503,22.4436
20.3503,22.4436
20.3503,23.5564
20.1003,23.5564
20.1003,23.1250
20.1003,23.1250
19.6943,23.1250
19.6943,23.1250
19.6943,23.4212
14.2000,23.4212
14.2000,23.1150
14.2000,23.1150
13.7845,23.1150
13.8000,23.0571
13.8000,22.9229
13.7872,22.8750
19.6943,22.8750
19.6943,22.8750
20.1003,22.8750
20.1003,22.8750
20.1003,22.4436
20.1003,22.4436
19.8295,22.4436
19.7858,22.4523
19.7858,22.4523
19.7362,22.4855
19.7362,22.4855
19.7030,22.5351
19.6943,22.5788
19.6943,22.8750
13.7872,22.8750
13.7845,22.8650
14.2000,22.8650
14.2000,22.8650
14.2000,22.2152
14.1913,22.1715
14.1913,22.1715
14.1581,22.1219
14.1581,22.1219
14.1085,22.0887
14.0648,22.0800
13.4150,22.0800
13.4150,22.0800
13.4150,22.4955
13.3571,22.4800
13.2229,22.4800
13.1650,22.4955
13.1650,22.0800
13.1650,22.0800
12.5152,22.0800
12.4715,22.0887
12.4715,22.0887
12.4219,22.1219
12.4219,22.1219
12.3887,22.1715
12.3800,22.2152
12.3800,22.8650
3.5005,22.8650
3.5005,20.9547
7.2195,20.9547
7.2345,21.0686
7.2495,21.1822
7.3088,21.4039
7.3088,21.4039
7.3967,21.6159
7.5114,21.8146
7.6511,21.9966
7.6511,21.9966
7.6511,21.9966
7.6511,21.9966
7.8133,22.1589
7.8133,22.1589
7.8133,22.1589
7.8133,22.1589
7.9954,22.2986
7.9954,22.2986
7.9954,22.2986
8.1941,22.4133
8.3682,22.4855
8.4061,22.5011
8.4061,22.5011
8.6278,22.5605
8.6278,22.5605
8.6278,22.5605
8.8553,22.5905
8.8553,22.5905
9.0847,22.5905
9.0847,22.5905
9.3122,22.5605
9.4378,22.5269
9.5339,22.5011
9.5339,22.5011
9.5339,22.5011
9.7459,22.4133
9.9446,22.2986
9.9718,22.2777
10.0493,22.2183
10.1267,22.1589
10.2889,21.9966
10.4286,21.8146
10.5433,21.6159
10.6312,21.4039
10.6342,21.3924
10.6905,21.1822
10.6905,21.1822
10.6905,21.1822
10.7205,20.9547
10.7205,20.7253
10.6905,20.4977
10.6312,20.2761
10.5433,20.0641
10.5006,19.9900
12.3249,19.9900
12.3434,20.1783
12.3591,20.2300
12.3983,20.3593
12.4875,20.5262
12.4875,20.5262
12.4875,20.5262
12.6075,20.6725
12.6075,20.6725
12.6075,20.6725
12.6075,20.6725
12.6075,20.6725
12.7375,20.7791
12.7538,20.7925
12.9207,20.8817
13.0930,20.9340
13.1017,20.9366
13.2900,20.9551
13.2900,20.9551
13.2900,20.9551
13.4783,20.9366
13.4783,20.9366
13.4783,20.9366
13.6593,20.8817
13.8262,20.7925
13.9725,20.6725
14.0925,20.5262
14.1817,20.3593
14.2366,20.1783
14.2366,20.1783
14.2366,20.1783
14.2551,19.9900
14.2551,19.9900
14.2366,19.8017
14.2335,19.7914
14.1817,19.6207
14.1605,19.5811
14.1562,19.5729
14.1544,19.5546
14.1603,19.5446
17.1600,16.5450
28.8378,16.5450
28.8378,16.5450
29.9550,16.5450
29.9550,16.5450
30.2050,16.5450
30.2050,16.5450
31.3222,16.5450
31.3222,16.5450
31.3222,16.3758
31.3135,16.3321
31.3135,16.3321
31.2803,16.2825
31.2803,16.2825
31.2307,16.2493
31.1870,16.2406
30.2050,16.2406
30.2050,16.2406
30.2050,16.5450
29.9550,16.5450
29.9550,16.2406
29.9550,16.2406
28.9730,16.2406
28.9293,16.2493
28.9293,16.2493
28.8797,16.2825
28.8797,16.2825
28.8465,16.3321
28.8378,16.3758
28.8378,16.5450
17.1600,16.5450
17.9974,15.7075
18.0144,15.7005
28.7679,15.7005
28.7848,15.7075
28.7914,15.7198
28.7989,15.7576
28.7989,15.7576
28.7989,15.7576
28.8432,15.8240
28.9096,15.8683
28.9681,15.8799
28.9681,15.8799
31.1919,15.8799
31.1919,15.8799
31.2504,15.8683
31.3168,15.8240
31.3611,15.7576
31.3727,15.6991
31.3727,15.1009
31.3611,15.0424
31.3168,14.9760
31.2504,14.9317
31.2504,14.9317
31.2504,14.9317
31.1920,14.9201
31.1919,14.9201
28.9681,14.9201
28.9680,14.9201
28.9096,14.9317
28.8432,14.9760
28.8432,14.9760
28.7989,15.0424
28.7914,15.0802
28.7812,15.0955
28.7679,15.0995
17.8404,15.0995
17.8200,15.1050
17.7640,15.1200
17.6955,15.1595
13.7354,19.1196
13.7184,19.1267
13.7071,19.1238
13.6593,19.0983
13.6593,19.0983
13.6593,19.0983
13.5688,19.0709
13.4783,19.0434
13.2900,19.0249
13.2900,19.0249
13.1017,19.0434
12.9965,19.0753
12.9207,19.0983
12.9207,19.0983
12.9207,19.0983
12.7538,19.1875
12.7538,19.1875
12.6075,19.3075
12.6075,19.3075
12.4875,19.4538
12.4875,19.4538
12.4195,19.5811
12.3983,19.6207
12.3793,19.6833
12.3434,19.8017
12.3249,19.9900
12.3249,19.9900
10.5006,19.9900
10.4286,19.8654
10.4286,19.8654
10.4286,19.8654
10.2889,19.6833
10.2889,19.6833
10.2889,19.6833
10.2889,19.6833
10.1267,19.5211
10.1267,19.5211
10.1267,19.5211
10.1267,19.5211
9.9446,19.3814
9.7459,19.2666
9.5339,19.1788
9.5339,19.1788
9.3122,19.1194
9.3122,19.1194
9.0847,19.0895
8.8553,19.0895
8.6486,19.1167
8.6278,19.1194
8.4061,19.1788
8.4061,19.1788
8.1941,19.2666
7.9954,19.3814
7.8133,19.5211
7.8133,19.5211
7.6511,19.6833
7.6511,19.6833
7.5114,19.8654
7.3967,20.0641
7.3088,20.2761
7.3088,20.2761
7.2495,20.4977
7.2495,20.4977
7.2195,20.7253
7.2195,20.9547
3.5005,20.9547
3.5005,16.9900
12.3249,16.9900
12.3434,17.1783
12.3651,17.2500
12.3983,17.3593
12.4875,17.5262
12.4875,17.5262
12.4875,17.5262
12.6075,17.6725
12.6075,17.6725
12.6075,17.6725
12.6075,17.6725
12.6075,17.6725
12.7538,17.7925
12.7538,17.7925
12.9207,17.8817
13.0930,17.9340
13.1017,17.9366
13.2900,17.9551
13.2900,17.9551
13.2900,17.9551
13.4783,17.9366
13.4783,17.9366
13.4783,17.9366
13.6593,17.8817
13.8262,17.7925
13.9725,17.6725
14.0925,17.5262
14.1817,17.3593
14.2366,17.1783
14.2366,17.1783
14.2366,17.1783
14.2551,16.9900
14.2551,16.9900
14.2366,16.8017
14.2256,16.7654
14.1817,16.6207
14.1562,16.5729
14.1544,16.5546
14.1603,16.5446
16.2674,14.4375
16.2844,14.4305
28.7679,14.4305
28.7848,14.4375
28.7914,14.4498
28.7989,14.4876
28.7989,14.4876
28.7989,14.4876
28.8432,14.5540
28.9096,14.5983
28.9681,14.6099
28.9681,14.6099
31.1919,14.6099
31.1919,14.6099
31.2504,14.5983
31.3168,14.5540
31.3611,14.4876
31.3727,14.4292
33.5117,14.4292
33.5233,14.4876
33.5233,14.4876
33.5233,14.4876
33.5676,14.5540
33.6340,14.5983
33.6925,14.6099
33.6925,14.6099
35.9163,14.6099
35.9163,14.6099
35.9748,14.5983
36.0412,14.5540
36.0855,14.4876
36.0971,14.4291
36.0971,13.8309
36.0855,13.7724
36.0412,13.7060
35.9748,13.6617
35.9748,13.6617
35.9748,13.6617
35.9164,13.6501
35.9163,13.6501
33.6925,13.6501
33.6924,13.6501
33.6340,13.6617
33.5677,13.7060
33.5676,13.7060
33.5233,13.7724
33.5117,13.8308
33.5117,14.4292
31.3727,14.4292
31.3727,14.4291
31.3727,13.8309
31.3611,13.7724
31.3168,13.7060
31.2504,13.6617
31.2504,13.6617
31.2504,13.6617
31.1920,13.6501
31.1919,13.6501
28.9681,13.6501
28.9680,13.6501
28.9096,13.6617
28.8432,13.7060
28.8432,13.7060
28.7989,13.7724
28.7914,13.8102
28.7812,13.8255
28.7679,13.8295
16.1104,13.8295
16.0340,13.8500
15.9655,13.8895
13.7354,16.1196
13.7184,16.1267
13.7071,16.1238
13.6593,16.0983
13.5542,16.0664
13.4783,16.0434
13.2900,16.0249
13.2900,16.0249
13.1017,16.0434
12.9965,16.0753
12.9207,16.0983
12.7742,16.1766
12.7538,16.1875
12.7538,16.1875
12.6075,16.3075
12.6075,16.3075
12.4875,16.4538
12.4875,16.4538
12.4875,16.4538
12.3983,16.6207
12.3880,16.6547
12.3434,16.8017
12.3249,16.9900
12.3249,16.9900
3.5005,16.9900
3.5005,13.2547
7.2195,13.2547
7.2477,13.4686
7.2495,13.4822
7.3088,13.7039
7.3088,13.7039
7.3967,13.9159
7.5114,14.1146
7.6511,14.2967
7.6511,14.2967
7.6511,14.2967
7.6511,14.2967
7.8133,14.4589
7.8133,14.4589
7.8133,14.4589
7.8133,14.4589
7.9954,14.5986
7.9954,14.5986
7.9954,14.5986
8.1941,14.7133
8.4061,14.8012
8.4061,14.8012
8.6278,14.8605
8.6278,14.8605
8.6278,14.8605
8.8553,14.8905
8.8553,14.8905
9.0847,14.8905
9.0847,14.8905
9.3122,14.8605
9.3982,14.8375
9.5339,14.8012
9.5339,14.8012
9.5339,14.8012
9.7459,14.7133
9.9446,14.5986
10.1267,14.4589
10.2889,14.2967
10.4219,14.1234
10.4286,14.1146
10.4286,14.1146
10.4286,14.1146
10.5006,13.9900
12.3249,13.9900
12.3434,14.1783
12.3597,14.2321
12.3983,14.3593
12.4875,14.5262
12.4875,14.5262
12.4875,14.5262
12.6075,14.6725
12.6075,14.6725
12.6075,14.6725
12.6075,14.6725
12.6075,14.6725
12.7538,14.7925
12.7538,14.7925
12.9207,14.8817
13.0856,14.9317
13.1017,14.9366
13.2900,14.9551
13.2900,14.9551
13.2900,14.9551
13.4783,14.9366
13.4783,14.9366
13.4783,14.9366
13.6593,14.8817
13.8262,14.7925
13.9725,14.6725
14.0925,14.5262
14.1817,14.3593
14.2366,14.1783
14.2366,14.1783
14.2366,14.1783
14.2551,13.9900
14.2551,13.9900
14.2366,13.8017
14.2277,13.7724
14.1817,13.6207
14.1562,13.5729
14.1544,13.5546
14.1603,13.5446
14.5374,13.1675
14.5544,13.1605
28.7679,13.1605
28.7848,13.1675
28.7914,13.1798
28.7989,13.2176
28.7989,13.2176
28.7989,13.2176
28.8432,13.2840
28.9096,13.3283
28.9681,13.3399
28.9681,13.3399
31.1919,13.3399
31.1919,13.3399
31.2504,13.3283
31.3168,13.2840
31.3611,13.2176
31.3727,13.1591
31.3727,12.5609
31.3611,12.5024
31.3168,12.4360
31.2504,12.3917
31.2504,12.3917
31.2504,12.3917
31.1920,12.3801
31.1919,12.3801
28.9681,12.3801
28.9680,12.3801
28.9096,12.3917
28.8432,12.4360
28.8432,12.4360
28.7989,12.5024
28.7914,12.5402
28.7812,12.5555
28.7679,12.5595
14.3804,12.5595
14.3600,12.5650
14.3040,12.5800
14.2529,12.6095
14.2529,12.6095
14.2355,12.6195
13.7354,13.1196
13.7184,13.1267
13.7071,13.1238
13.6594,13.0983
13.6593,13.0983
13.6256,13.0881
13.4783,13.0434
13.2900,13.0249
13.2900,13.0249
13.1017,13.0434
12.9965,13.0753
12.9207,13.0983
12.9207,13.0983
12.9207,13.0983
12.7538,13.1875
12.7538,13.1875
12.6075,13.3075
12.6075,13.3075
12.4875,13.4538
12.4875,13.4538
12.4875,13.4538
12.3983,13.6207
12.3894,13.6501
12.3434,13.8017
12.3249,13.9900
12.3249,13.9900
10.5006,13.9900
10.5433,13.9159
10.6312,13.7039
10.6905,13.4822
10.7205,13.2547
10.7205,13.0253
10.6905,12.7978
10.6428,12.6195
10.6312,12.5761
10.6312,12.5761
10.6226,12.5555
10.5433,12.3641
10.4286,12.1654
10.4286,12.1654
10.4286,12.1654
10.2889,11.9833
10.2889,11.9833
10.2889,11.9833
10.2889,11.9833
10.1267,11.8211
10.1267,11.8211
10.1267,11.8211
10.1267,11.8211
9.9446,11.6814
9.7459,11.5667
9.5339,11.4788
9.5339,11.4788
9.3122,11.4195
9.3122,11.4195
9.0847,11.3895
8.8553,11.3895
8.6486,11.4167
8.6278,11.4195
8.4061,11.4788
8.4061,11.4788
8.1941,11.5667
7.9954,11.6814
7.8133,11.8211
7.8133,11.8211
7.6511,11.9833
7.6511,11.9833
7.5114,12.1654
7.3967,12.3641
7.3088,12.5761
7.3088,12.5761
7.2495,12.7978
7.2495,12.7978
7.2195,13.0253
7.2195,13.2547
3.5005,13.2547
3.5005,10.9900
12.3249,10.9900
12.3434,11.1783
12.3664,11.2542
12.3983,11.3593
12.4875,11.5262
12.4875,11.5262
12.4875,11.5262
12.6075,11.6725
12.6075,11.6725
12.6075,11.6725
12.6075,11.6725
12.6075,11.6725
12.7148,11.7605
12.7538,11.7925
12.9207,11.8817
13.0930,11.9340
13.1017,11.9366
13.2900,11.9552
13.2900,11.9552
13.2900,11.9552
13.4783,11.9366
13.4783,11.9366
13.4783,11.9366
13.6593,11.8817
13.8262,11.7925
13.9725,11.6725
14.0325,11.5993
14.0487,11.5906
14.0511,11.5905
18.4483,11.5905
18.4653,11.5975
18.4723,11.6145
18.4723,11.7924
18.4839,11.8508
18.4839,11.8508
18.4839,11.8508
18.5282,11.9172
18.5946,11.9615
18.6531,11.9731
18.6531,11.9731
19.6069,11.9731
19.6069,11.9731
19.6654,11.9615
19.7318,11.9172
19.7761,11.8508
19.7877,11.7923
19.7877,11.6145
19.7947,11.5975
19.8117,11.5905
20.8127,11.5905
20.8297,11.5975
20.9366,11.7045
20.9366,11.7045
20.9926,11.7605
20.9926,11.7605
21.0611,11.8000
21.1375,11.8205
21.2639,11.8205
21.2809,11.8275
21.2875,11.8398
21.2899,11.8522
21.2899,11.8522
21.2899,11.8522
21.3342,11.9186
21.4006,11.9629
21.4591,11.9745
21.4591,11.9745
22.8193,11.9745
22.8193,11.9745
22.8778,11.9629
22.9442,11.9186
22.9885,11.8522
22.9909,11.8398
23.0011,11.8245
23.0145,11.8205
23.1409,11.8205
23.1409,11.8205
23.2173,11.8000
23.2281,11.7938
23.8691,11.7938
23.8807,11.8522
23.8807,11.8522
23.8807,11.8522
23.9250,11.9186
23.9914,11.9629
24.0499,11.9745
24.0499,11.9745
25.4101,11.9745
25.4101,11.9745
25.4686,11.9629
25.5350,11.9186
25.5793,11.8522
25.5909,11.7937
25.5909,11.2463
25.5793,11.1878
25.5350,11.1214
25.4686,11.0771
25.4686,11.0771
25.4686,11.0771
25.4102,11.0655
25.4101,11.0655
24.0499,11.0655
24.0498,11.0655
23.9914,11.0771
23.9250,11.1214
23.9250,11.1215
23.8807,11.1878
23.8691,11.2462
23.8691,11.7938
23.2281,11.7938
23.2858,11.7605
23.3418,11.7045
23.3813,11.6360
23.4018,11.5596
23.4018,9.5804
23.3813,9.5040
23.3418,9.4355
23.2858,9.3795
23.2173,9.3400
23.2173,9.3400
23.2173,9.3400
23.1688,9.3270
23.1409,9.3195
23.1409,9.3195
23.0145,9.3195
22.9975,9.3125
22.9909,9.3002
22.9885,9.2878
22.9885,9.2878
22.9442,9.2214
22.8778,9.1771
22.8778,9.1771
22.8778,9.1771
22.8194,9.1655
22.8193,9.1655
21.4591,9.1655
21.4590,9.1655
21.4006,9.1771
21.3342,9.2214
21.3342,9.2214
21.2899,9.2878
21.2783,9.3462
21.2783,9.8938
21.2899,9.9522
21.2899,9.9522
21.2899,9.9522
21.3342,10.0186
21.4006,10.0629
21.4591,10.0745
22.7768,10.0745
22.7938,10.0815
22.8008,10.0985
22.8008,10.1420
22.7938,10.1590
22.7768,10.1660
22.2642,10.1660
22.2642,10.1660
22.2642,10.9740
22.2642,10.9740
22.7768,10.9740
22.7938,10.9810
22.8008,10.9980
22.8008,11.0415
22.7938,11.0585
22.7768,11.0655
21.4590,11.0655
21.4006,11.0771
21.3342,11.1214
21.3342,11.1215
21.2981,11.1755
21.2829,11.1857
21.2648,11.1821
21.2612,11.1791
21.1316,11.0495
21.1316,11.0495
21.0631,11.0100
21.0631,11.0100
21.0631,11.0100
21.0146,10.9970
20.9867,10.9895
20.9867,10.9895
19.8117,10.9895
19.7947,10.9825
19.7877,10.9655
19.7877,10.8388
21.3288,10.8388
21.3375,10.8825
21.3375,10.8825
21.3707,10.9321
21.3707,10.9321
21.4203,10.9653
21.4640,10.9740
22.0142,10.9740
22.0142,10.9740
22.0142,10.6950
22.0142,10.6950
21.3288,10.6950
21.3288,10.6950
21.3288,10.8388
19.7877,10.8388
19.7877,10.7877
19.7877,10.7876
19.7761,10.7292
19.7761,10.7292
19.7318,10.6628
19.6654,10.6185
19.6654,10.6185
19.6654,10.6185
19.6070,10.6069
19.6069,10.6069
19.5604,10.6069
19.5434,10.5999
19.5364,10.5829
19.5364,10.4988
19.5434,10.4818
19.5604,10.4748
19.6020,10.4748
19.6457,10.4661
19.6457,10.4661
19.6773,10.4450
21.3288,10.4450
21.3288,10.4450
22.0142,10.4450
22.0142,10.4450
22.0142,10.1660
22.0142,10.1660
21.4640,10.1660
21.4203,10.1747
21.4203,10.1747
21.3707,10.2079
21.3707,10.2079
21.3375,10.2575
21.3288,10.3012
21.3288,10.4450
19.6773,10.4450
19.6953,10.4329
19.6953,10.4329
19.7285,10.3833
19.7372,10.3396
19.7372,10.3396
19.7372,9.9672
19.7372,9.9672
18.5228,9.9672
18.5228,9.9672
18.5228,10.3396
18.5315,10.3833
18.5315,10.3833
18.5647,10.4329
18.5647,10.4329
18.6143,10.4661
18.6580,10.4748
18.6996,10.4748
18.7166,10.4818
18.7236,10.4988
18.7236,10.5829
18.7166,10.5999
18.6996,10.6069
18.6530,10.6069
18.5946,10.6185
18.5282,10.6628
18.5282,10.6628
18.4839,10.7292
18.4723,10.7876
18.4723,10.9655
18.4653,10.9825
18.4483,10.9895
14.2768,10.9895
14.2599,10.9825
14.2530,10.9679
14.2366,10.8017
14.2146,10.7292
14.1817,10.6207
14.0925,10.4538
14.0853,10.4450
13.9725,10.3075
13.9725,10.3075
13.9725,10.3075
13.9725,10.3075
13.9725,10.3075
13.8262,10.1875
13.8262,10.1875
13.8262,10.1875
13.6593,10.0983
13.5425,10.0629
13.4783,10.0434
13.2900,10.0249
13.2900,10.0249
13.1017,10.0434
12.9992,10.0745
12.9207,10.0983
12.9207,10.0983
12.9207,10.0983
12.9073,10.1054
12.7778,10.1747
12.7538,10.1875
12.7538,10.1875
12.6075,10.3075
12.6075,10.3075
12.4875,10.4538
12.4875,10.4538
12.4875,10.4538
12.3983,10.6207
12.3758,10.6950
12.3434,10.8017
12.3249,10.9900
12.3249,10.9900
3.5005,10.9900
3.5005,9.7172
18.5228,9.7172
18.5228,9.7172
19.0050,9.7172
19.0050,9.7172
19.2550,9.7172
19.2550,9.7172
19.7372,9.7172
19.7372,9.7172
19.7372,9.3448
19.7285,9.3011
19.7285,9.3011
19.6953,9.2515
19.6953,9.2515
19.6457,9.2183
19.6020,9.2096
19.2550,9.2096
19.2550,9.2096
19.2550,9.7172
19.0050,9.7172
19.0050,9.2096
19.0050,9.2096
18.6580,9.2096
18.6143,9.2183
18.6143,9.2183
18.5647,9.2515
18.5647,9.2515
18.5315,9.3011
18.5228,9.3448
18.5228,9.7172
3.5005,9.7172
3.5005,7.5320
22.3665,7.5320
22.3752,7.5757
22.3752,7.5757
22.4084,7.6253
22.4084,7.6253
22.4580,7.6585
22.5017,7.6672
22.8741,7.6672
22.8741,7.6672
22.8741,7.1850
22.8741,7.1850
22.3665,7.1850
22.3665,7.1850
22.3665,7.5320
3.5005,7.5320
3.5005,6.9350
22.3665,6.9350
22.3665,6.9350
22.8741,6.9350
22.8741,6.9350
22.8741,6.4528
22.8741,6.4528
22.5017,6.4528
22.4580,6.4615
22.4580,6.4615
22.4084,6.4947
22.4084,6.4947
22.3752,6.5443
22.3665,6.5880
22.3665,6.9350
3.5005,6.9350
3.5005,6.3173
3.5075,6.3003
5.0003,4.8075
5.0173,4.8005
61.9827,4.8005
Z" /> 
</g>
<g style="fill:#FFFFFF; fill-opacity:1.0000; stroke:none;">
<circle cx="33.5000" cy="26.5000" r="1.5000" /> 
</g>
<g style="fill:#FFFFFF; fill-opacity:1.0000; stroke:none;">
<circle cx="33.5000" cy="7.2500" r="1.5000" /> 
</g>
<g style="fill:#FFFFFF; fill-opacity:1.0000; stroke:none;">
<circle cx="32.4500" cy="18.2000" r="0.1500" /> 
</g>
<g style="fill:#FFFFFF; fill-opacity:1.0000; stroke:none;">
<circle cx="32.4500" cy="13.8500" r="0.1500" /> 
</g>
<g style="fill:#FFFFFF; fill-opacity:1.0000; stroke:none;">
<circle cx="37.7500" cy="17.2500" r="0.1500" /> 
</g>
<g style="fill:#FFFFFF; fill-opacity:1.0000; stroke:none;">
<circle cx="43.2500" cy="26.2500" r="0.1500" /> 
</g>
<g style="fill:#FFFFFF; fill-opacity:1.0000; stroke:none;">
<circle cx="8.9700" cy="13.1400" r="1.5000" /> 
</g>
<g style="fill:#FFFFFF; fill-opacity:1.0000; stroke:none;">
<circle cx="8.9700" cy="20.8400" r="1.5000" /> 
</g>
<g style="fill:#FFFFFF; fill-opacity:1.0000; stroke:none;">
<circle cx="13.2900" cy="22.9900" r="0.5100" /> 
</g>
<g style="fill:#FFFFFF; fill-opacity:1.0000; stroke:none;">
<circle cx="13.2900" cy="19.9900" r="0.5100" /> 
</g>
<g style="fill:#FFFFFF; fill-opacity:1.0000; stroke:none;">
<circle cx="13.2900" cy="16.9900" r="0.5100" /> 
</g>
<g style="fill:#FFFFFF; fill-opacity:1.0000; stroke:none;">
<circle cx="13.2900" cy="13.9900" r="0.5100" /> 
</g>
<g style="fill:#FFFFFF; fill-opacity:1.0000; stroke:none;">
<circle cx="13.2900" cy="10.9900" r="0.5100" /> 
</g>
<g style="fill:#FFFFFF; fill-opacity:1.0000; stroke:none;">
<circle cx="57.8540" cy="20.5100" r="0.5461" /> 
</g>
<g style="fill:#FFFFFF; fill-opacity:1.0000; stroke:none;">
<circle cx="57.8540" cy="24.3200" r="0.5461" /> 
</g>
<g style="fill:#FFFFFF; fill-opacity:1.0000; stroke:none;">
<circle cx="57.8440" cy="9.1000" r="0.5461" /> 
</g>
<g style="fill:#FFFFFF; fill-opacity:1.0000; stroke:none;">
<circle cx="57.8440" cy="12.9100" r="0.5461" /> 
</g>
<g style="fill:none; 
stroke:#D0D2CD; stroke-width:0.0500; stroke-opacity:1; 
stroke-linecap:round; stroke-linejoin:round;">
<path d="M62.2000 4.3000
L64.0000 6.1000
" />
<path d="M64.0000 6.1000
L64.0000 27.5000
" />
<path d="M3.0000 6.1000
L4.8000 4.3000
" />
<path d="M4.8000 29.3000
L3.0000 27.5000
" />
<path d="M64.0000 27.5000
L62.2000 29.3000
" />
<path d="M4.8000 4.3000
L62.2000 4.3000
" />
<path d="M62.2000 29.3000
L4.8000 29.3000
" />
<path d="M3.0000 27.5000
L3.0000 6.1000
" />
</g> 
</svg>
