<?xml version="1.0" standalone="no"?>
 <!DOCTYPE svg PUBLIC "-//W3C//DTD SVG 1.1//EN" 
 "http://www.w3.org/Graphics/SVG/1.1/DTD/svg11.dtd"> 
<svg
  xmlns:svg="http://www.w3.org/2000/svg"
  xmlns="http://www.w3.org/2000/svg"
  xmlns:xlink="http://www.w3.org/1999/xlink"
  version="1.1"
  width="67.4878mm" height="32.4866mm" viewBox="0.0000 0.0000 67.4878 32.4866">
<title>SVG Image created as QATCH_MUX_PCB_tester_1x1-B_Cu.svg date 2024/05/28 11:30:13 </title>
  <desc>Image generated by PCBNEW </desc>
<g style="fill:#000000; fill-opacity:1.0000;stroke:#000000; stroke-opacity:1.0000;
stroke-linecap:round; stroke-linejoin:round;"
 transform="translate(0 0) scale(1 1)">
<path style="fill:#4D7FC4; fill-opacity:1.0000; stroke:none;fill-rule:evenodd;"
d="M 12.5300,22.2300
14.0500,22.2300
14.0500,23.7500
12.5300,23.7500
Z" /> 
</g>
<g style="fill:#4D7FC4; fill-opacity:1.0000; stroke:none;">
<circle cx="13.2900" cy="19.9900" r="0.7600" /> 
</g>
<g style="fill:#4D7FC4; fill-opacity:1.0000; stroke:none;">
<circle cx="13.2900" cy="16.9900" r="0.7600" /> 
</g>
<g style="fill:#4D7FC4; fill-opacity:1.0000; stroke:none;">
<circle cx="13.2900" cy="13.9900" r="0.7600" /> 
</g>
<g style="fill:#4D7FC4; fill-opacity:1.0000; stroke:none;">
<circle cx="13.2900" cy="10.9900" r="0.7600" /> 
</g>
<g style="fill:#4D7FC4; fill-opacity:1.0000; stroke:none;">
<circle cx="57.8540" cy="20.5100" r="0.8001" /> 
</g>
<g style="fill:#4D7FC4; fill-opacity:1.0000; stroke:none;">
<circle cx="57.8540" cy="24.3200" r="0.8001" /> 
</g>
<g style="fill:#4D7FC4; fill-opacity:1.0000; stroke:none;">
<circle cx="57.8440" cy="9.1000" r="0.8001" /> 
</g>
<g style="fill:#4D7FC4; fill-opacity:1.0000; stroke:none;">
<circle cx="57.8440" cy="12.9100" r="0.8001" /> 
</g>
<g style="fill:#ECECEC; fill-opacity:1.0000; stroke:none;">
<circle cx="33.5000" cy="26.5000" r="1.7500" /> 
</g>
<g style="fill:#ECECEC; fill-opacity:1.0000; stroke:none;">
<circle cx="33.5000" cy="7.2500" r="1.7500" /> 
</g>
<g style="fill:#ECECEC; fill-opacity:1.0000; stroke:none;">
<circle cx="32.4500" cy="18.2000" r="0.3000" /> 
</g>
<g style="fill:#ECECEC; fill-opacity:1.0000; stroke:none;">
<circle cx="32.4500" cy="13.8500" r="0.3000" /> 
</g>
<g style="fill:#ECECEC; fill-opacity:1.0000; stroke:none;">
<circle cx="37.7500" cy="17.2500" r="0.3000" /> 
</g>
<g style="fill:#ECECEC; fill-opacity:1.0000; stroke:none;">
<circle cx="43.2500" cy="26.2500" r="0.3000" /> 
</g>
<g style="fill:none; 
stroke:#4D7FC4; stroke-width:0.2000; stroke-opacity:1; 
stroke-linecap:round; stroke-linejoin:round;">
<path d="M32.4500 18.2000
L32.4500 13.8500
" />
<path d="M40.0000 26.2500
L43.2500 26.2500
" />
<path d="M37.7500 17.2500
L37.7500 24.0000
" />
<path d="M37.7500 24.0000
L40.0000 26.2500
" />
<path style="fill:#4D7FC4; fill-opacity:1.0000; stroke:none;fill-rule:evenodd;"
d="M 61.9997,4.8075
63.4925,6.3003
63.4995,6.3173
63.4995,27.2827
63.4925,27.2997
61.9997,28.7925
61.9827,28.7995
5.0173,28.7995
5.0003,28.7925
3.5075,27.2997
3.5005,27.2827
3.5005,26.5000
31.5445,26.5000
31.5644,26.7783
31.5644,26.7783
31.6237,27.0509
31.7139,27.2927
31.7212,27.3123
31.8549,27.5572
31.8549,27.5572
31.9567,27.6932
32.0221,27.7806
32.2194,27.9779
32.4428,28.1451
32.6054,28.2338
32.6877,28.2788
32.6877,28.2788
32.6877,28.2788
32.9491,28.3763
33.2217,28.4356
33.5000,28.4555
33.7783,28.4356
34.0509,28.3763
34.3123,28.2788
34.5572,28.1451
34.7806,27.9779
34.9779,27.7806
35.1451,27.5572
35.2788,27.3123
35.3763,27.0509
35.4356,26.7783
35.4555,26.5000
35.4356,26.2217
35.3763,25.9491
35.2788,25.6877
35.1451,25.4428
34.9779,25.2194
34.7806,25.0221
34.7067,24.9668
34.5572,24.8549
34.5572,24.8549
34.3123,24.7212
34.2682,24.7048
34.0509,24.6237
33.8292,24.5755
33.7783,24.5644
33.5000,24.5445
33.2217,24.5644
33.0854,24.5941
32.9491,24.6237
32.9491,24.6237
32.9491,24.6237
32.6877,24.7212
32.4428,24.8549
32.4428,24.8549
32.2194,25.0221
32.0221,25.2194
31.8549,25.4428
31.8549,25.4428
31.7212,25.6877
31.6262,25.9425
31.6237,25.9491
31.6236,25.9495
31.5644,26.2217
31.5445,26.5000
3.5005,26.5000
3.5005,22.8650
12.3800,22.8650
12.3800,22.8650
12.7955,22.8650
12.7800,22.9229
12.7800,23.0571
12.7955,23.1150
12.3800,23.1150
12.3800,23.1150
12.3800,23.7648
12.3887,23.8085
12.3887,23.8085
12.4219,23.8581
12.4219,23.8581
12.4715,23.8913
12.5152,23.9000
13.1650,23.9000
13.1650,23.9000
13.1650,23.4845
13.2229,23.5000
13.3571,23.5000
13.4150,23.4845
13.4150,23.9000
13.4150,23.9000
14.0648,23.9000
14.1085,23.8913
14.1085,23.8913
14.1581,23.8581
14.1581,23.8581
14.1913,23.8085
14.2000,23.7648
14.2000,23.7648
14.2000,23.1150
14.2000,23.1150
13.7845,23.1150
13.8000,23.0571
13.8000,22.9229
13.7845,22.8650
14.2000,22.8650
14.2000,22.8650
14.2000,22.2152
14.1913,22.1715
14.1913,22.1715
14.1581,22.1219
14.1581,22.1219
14.1085,22.0887
14.0648,22.0800
13.4150,22.0800
13.4150,22.0800
13.4150,22.4955
13.3571,22.4800
13.2229,22.4800
13.1650,22.4955
13.1650,22.0800
13.1650,22.0800
12.5152,22.0800
12.4715,22.0887
12.4715,22.0887
12.4219,22.1219
12.4219,22.1219
12.3887,22.1715
12.3800,22.2152
12.3800,22.8650
3.5005,22.8650
3.5005,20.9547
7.2195,20.9547
7.2345,21.0686
7.2495,21.1822
7.3088,21.4039
7.3088,21.4039
7.3967,21.6159
7.5114,21.8146
7.6511,21.9966
7.6511,21.9966
7.6511,21.9966
7.6511,21.9966
7.8133,22.1589
7.8133,22.1589
7.8133,22.1589
7.8133,22.1589
7.9954,22.2986
7.9954,22.2986
7.9954,22.2986
8.1941,22.4133
8.4061,22.5011
8.4061,22.5011
8.6278,22.5605
8.6278,22.5605
8.6278,22.5605
8.8553,22.5905
8.8553,22.5905
9.0847,22.5905
9.0847,22.5905
9.3122,22.5605
9.3982,22.5375
9.5339,22.5011
9.5339,22.5011
9.5339,22.5011
9.7459,22.4133
9.9446,22.2986
10.1267,22.1589
10.2889,21.9966
10.4286,21.8146
10.5433,21.6159
10.6312,21.4039
10.6905,21.1822
10.7205,20.9547
10.7205,20.7253
10.6905,20.4977
10.6312,20.2761
10.5433,20.0641
10.5006,19.9900
12.3249,19.9900
12.3434,20.1783
12.3664,20.2542
12.3983,20.3593
12.4875,20.5262
12.4875,20.5262
12.4875,20.5262
12.6075,20.6725
12.6075,20.6725
12.6075,20.6725
12.6075,20.6725
12.6075,20.6725
12.7538,20.7925
12.7538,20.7925
12.9207,20.8817
13.0930,20.9340
13.1017,20.9366
13.2900,20.9551
13.2900,20.9551
13.2900,20.9551
13.4783,20.9366
13.4783,20.9366
13.4783,20.9366
13.6593,20.8817
13.8262,20.7925
13.9725,20.6725
14.0925,20.5262
14.1817,20.3593
14.2366,20.1783
14.2366,20.1783
14.2366,20.1783
14.2551,19.9900
14.2551,19.9900
14.2366,19.8017
14.2340,19.7930
14.1817,19.6207
14.0925,19.4538
14.0331,19.3814
13.9725,19.3075
13.9725,19.3075
13.9725,19.3075
13.9725,19.3075
13.9725,19.3075
13.8262,19.1875
13.8262,19.1875
13.8262,19.1875
13.6593,19.0983
13.5542,19.0664
13.4783,19.0434
13.2900,19.0249
13.2900,19.0249
13.1017,19.0434
12.9965,19.0753
12.9207,19.0983
12.9207,19.0983
12.9207,19.0983
12.7538,19.1875
12.7538,19.1875
12.6075,19.3075
12.6075,19.3075
12.4875,19.4538
12.4875,19.4538
12.4195,19.5811
12.3983,19.6207
12.3793,19.6833
12.3434,19.8017
12.3249,19.9900
12.3249,19.9900
10.5006,19.9900
10.4286,19.8654
10.4286,19.8654
10.4286,19.8654
10.2889,19.6833
10.2889,19.6833
10.2889,19.6833
10.2889,19.6833
10.1267,19.5211
10.1267,19.5211
10.1267,19.5211
10.1267,19.5211
9.9446,19.3814
9.7459,19.2666
9.5339,19.1788
9.5339,19.1788
9.3122,19.1194
9.3122,19.1194
9.0847,19.0895
8.8553,19.0895
8.6486,19.1167
8.6278,19.1194
8.4061,19.1788
8.4061,19.1788
8.1941,19.2666
7.9954,19.3814
7.8133,19.5211
7.8133,19.5211
7.6511,19.6833
7.6511,19.6833
7.5114,19.8654
7.3967,20.0641
7.3088,20.2761
7.3088,20.2761
7.2495,20.4977
7.2495,20.4977
7.2195,20.7253
7.2195,20.9547
3.5005,20.9547
3.5005,18.2000
31.9444,18.2000
31.9648,18.3425
32.0246,18.4734
32.1189,18.5821
32.2399,18.6600
32.3780,18.7005
32.3780,18.7005
32.5220,18.7005
32.5220,18.7005
32.6601,18.6600
32.7811,18.5821
32.8754,18.4734
32.9352,18.3425
32.9556,18.2000
32.9352,18.0575
32.8754,17.9266
32.7811,17.8179
32.7811,17.8179
32.7615,17.8053
32.7510,17.7902
32.7505,17.7851
32.7505,17.2500
37.2444,17.2500
37.2648,17.3925
37.3246,17.5234
37.4189,17.6321
37.4385,17.6447
37.4490,17.6598
37.4495,17.6649
37.4495,24.0396
37.4582,24.0719
37.4700,24.1160
37.4700,24.1160
37.4745,24.1238
37.5095,24.1845
39.8155,26.4905
39.8840,26.5300
39.9604,26.5505
40.0396,26.5505
42.8372,26.5505
42.8541,26.5575
42.8553,26.5588
42.9189,26.6321
43.0399,26.7100
43.1780,26.7505
43.1780,26.7505
43.3220,26.7505
43.3220,26.7505
43.4601,26.7100
43.5811,26.6321
43.6754,26.5234
43.7352,26.3925
43.7556,26.2500
43.7352,26.1075
43.6754,25.9766
43.5811,25.8679
43.5811,25.8679
43.4601,25.7900
43.4600,25.7900
43.4202,25.7783
43.3220,25.7495
43.1780,25.7495
43.1206,25.7664
43.0399,25.7900
43.0399,25.7900
42.9189,25.8679
42.8553,25.9412
42.8389,25.9494
42.8372,25.9495
40.1344,25.9495
40.1174,25.9425
38.4950,24.3200
56.8486,24.3200
56.8679,24.5161
56.8919,24.5952
56.9251,24.7048
57.0180,24.8786
57.0180,24.8786
57.0180,24.8786
57.1430,25.0309
57.1430,25.0309
57.1430,25.0310
57.1431,25.0310
57.1431,25.0310
57.2954,25.1560
57.2954,25.1560
57.4692,25.2489
57.6488,25.3034
57.6579,25.3061
57.8540,25.3254
57.8540,25.3254
57.8540,25.3254
58.0501,25.3061
58.0501,25.3061
58.0502,25.3061
58.2388,25.2489
58.4126,25.1560
58.5650,25.0310
58.6900,24.8786
58.7829,24.7048
58.8401,24.5161
58.8401,24.5161
58.8401,24.5161
58.8594,24.3200
58.8594,24.3200
58.8401,24.1238
58.8401,24.1238
58.8377,24.1160
58.7829,23.9352
58.6900,23.7614
58.5650,23.6090
58.5649,23.6090
58.5649,23.6090
58.4126,23.4840
58.4126,23.4840
58.4126,23.4840
58.2388,23.3911
58.1292,23.3579
58.0501,23.3339
57.8540,23.3146
57.8540,23.3146
57.6579,23.3339
57.5483,23.3671
57.4692,23.3911
57.4692,23.3911
57.4692,23.3911
57.2954,23.4840
57.2954,23.4840
57.1431,23.6090
57.1430,23.6091
57.0180,23.7614
57.0180,23.7614
57.0180,23.7614
56.9251,23.9352
56.8703,24.1160
56.8679,24.1238
56.8679,24.1238
56.8486,24.3200
56.8486,24.3200
38.4950,24.3200
38.0575,23.8826
38.0505,23.8656
38.0505,20.5100
56.8486,20.5100
56.8679,20.7061
56.8737,20.7253
56.9251,20.8948
57.0180,21.0686
57.0180,21.0686
57.0180,21.0686
57.1430,21.2209
57.1430,21.2209
57.1430,21.2210
57.1431,21.2210
57.1431,21.2210
57.2954,21.3460
57.2954,21.3460
57.4692,21.4389
57.6488,21.4934
57.6579,21.4961
57.8540,21.5154
57.8540,21.5154
57.8540,21.5154
58.0501,21.4961
58.0501,21.4961
58.0502,21.4961
58.2388,21.4389
58.4126,21.3460
58.5650,21.2210
58.6900,21.0686
58.7829,20.8948
58.8401,20.7061
58.8401,20.7061
58.8401,20.7061
58.8594,20.5100
58.8594,20.5100
58.8401,20.3138
58.8287,20.2761
58.7829,20.1252
58.6900,19.9514
58.6194,19.8654
58.5650,19.7991
58.5650,19.7990
58.5650,19.7990
58.5649,19.7990
58.5649,19.7990
58.4126,19.6740
58.4126,19.6740
58.4126,19.6740
58.2388,19.5811
58.1292,19.5479
58.0501,19.5239
57.8540,19.5046
57.8540,19.5046
57.6579,19.5239
57.5483,19.5571
57.4692,19.5811
57.4692,19.5811
57.4692,19.5811
57.2954,19.6740
57.2954,19.6740
57.1431,19.7990
57.1430,19.7991
57.0180,19.9514
57.0180,19.9514
57.0180,19.9514
56.9251,20.1252
56.9090,20.1783
56.8679,20.3138
56.8486,20.5100
56.8486,20.5100
38.0505,20.5100
38.0505,17.6649
38.0575,17.6480
38.0615,17.6447
38.0811,17.6321
38.1754,17.5234
38.2352,17.3925
38.2556,17.2500
38.2352,17.1075
38.1754,16.9766
38.0811,16.8679
38.0811,16.8679
37.9601,16.7900
37.9600,16.7900
37.9202,16.7783
37.8220,16.7495
37.6780,16.7495
37.6206,16.7664
37.5399,16.7900
37.5399,16.7900
37.4189,16.8679
37.3246,16.9766
37.2648,17.1075
37.2648,17.1075
37.2444,17.2500
32.7505,17.2500
32.7505,14.2649
32.7575,14.2480
32.7615,14.2447
32.7811,14.2321
32.8754,14.1234
32.9352,13.9925
32.9556,13.8500
32.9352,13.7075
32.8754,13.5766
32.7811,13.4679
32.7811,13.4679
32.6601,13.3900
32.6600,13.3900
32.6202,13.3783
32.5220,13.3495
32.3780,13.3495
32.3206,13.3664
32.2399,13.3900
32.2399,13.3900
32.1189,13.4679
32.0246,13.5766
31.9665,13.7039
31.9648,13.7075
31.9444,13.8500
31.9648,13.9925
32.0246,14.1234
32.1189,14.2321
32.1385,14.2447
32.1490,14.2598
32.1495,14.2649
32.1495,17.7851
32.1425,17.8020
32.1385,17.8053
32.1189,17.8179
32.0246,17.9266
32.0201,17.9366
31.9648,18.0575
31.9444,18.2000
3.5005,18.2000
3.5005,16.9900
12.3249,16.9900
12.3434,17.1783
12.3651,17.2500
12.3983,17.3593
12.4875,17.5262
12.4875,17.5262
12.4875,17.5262
12.6075,17.6725
12.6075,17.6725
12.6075,17.6725
12.6075,17.6725
12.6075,17.6725
12.7510,17.7902
12.7538,17.7925
12.9207,17.8817
13.0930,17.9340
13.1017,17.9366
13.2900,17.9551
13.2900,17.9551
13.2900,17.9551
13.4783,17.9366
13.4783,17.9366
13.4783,17.9366
13.6593,17.8817
13.8262,17.7925
13.9725,17.6725
14.0925,17.5262
14.1817,17.3593
14.2366,17.1783
14.2366,17.1783
14.2366,17.1783
14.2551,16.9900
14.2551,16.9900
14.2366,16.8017
14.2208,16.7495
14.1817,16.6207
14.0925,16.4538
13.9725,16.3075
13.9725,16.3075
13.9725,16.3075
13.8262,16.1875
13.8262,16.1875
13.8262,16.1875
13.6593,16.0983
13.5542,16.0664
13.4783,16.0434
13.2900,16.0249
13.2900,16.0249
13.1017,16.0434
12.9965,16.0753
12.9207,16.0983
12.9207,16.0983
12.9207,16.0983
12.7538,16.1875
12.7538,16.1875
12.6075,16.3075
12.6075,16.3075
12.4875,16.4538
12.4875,16.4538
12.4875,16.4538
12.3983,16.6207
12.3753,16.6965
12.3434,16.8017
12.3249,16.9900
12.3249,16.9900
3.5005,16.9900
3.5005,13.2547
7.2195,13.2547
7.2477,13.4686
7.2495,13.4822
7.3088,13.7039
7.3088,13.7039
7.3967,13.9159
7.5114,14.1146
7.6511,14.2967
7.6511,14.2967
7.6511,14.2967
7.6511,14.2967
7.8133,14.4589
7.8133,14.4589
7.8133,14.4589
7.8133,14.4589
7.9954,14.5986
7.9954,14.5986
7.9954,14.5986
8.1941,14.7133
8.4061,14.8012
8.4061,14.8012
8.6278,14.8605
8.6278,14.8605
8.6278,14.8605
8.8553,14.8905
8.8553,14.8905
9.0847,14.8905
9.0847,14.8905
9.3122,14.8605
9.3982,14.8375
9.5339,14.8012
9.5339,14.8012
9.5339,14.8012
9.7459,14.7133
9.9446,14.5986
10.1267,14.4589
10.2889,14.2967
10.4219,14.1234
10.4286,14.1146
10.4286,14.1146
10.4286,14.1146
10.5006,13.9900
12.3249,13.9900
12.3434,14.1783
12.3664,14.2542
12.3983,14.3593
12.4875,14.5262
12.4875,14.5262
12.4875,14.5262
12.6075,14.6725
12.6075,14.6725
12.6075,14.6725
12.6075,14.6725
12.6075,14.6725
12.7538,14.7925
12.7538,14.7925
12.9207,14.8817
13.0930,14.9340
13.1017,14.9366
13.2900,14.9551
13.2900,14.9551
13.2900,14.9551
13.4783,14.9366
13.4783,14.9366
13.4783,14.9366
13.6593,14.8817
13.8262,14.7925
13.9725,14.6725
14.0925,14.5262
14.1817,14.3593
14.2366,14.1783
14.2366,14.1783
14.2366,14.1783
14.2551,13.9900
14.2551,13.9900
14.2366,13.8017
14.2197,13.7460
14.1817,13.6207
14.0925,13.4538
13.9725,13.3075
13.9725,13.3075
13.9725,13.3075
13.8262,13.1875
13.8262,13.1875
13.8262,13.1875
13.6593,13.0983
13.5542,13.0664
13.4783,13.0434
13.2900,13.0249
13.2900,13.0249
13.1017,13.0434
12.9965,13.0753
12.9207,13.0983
12.9207,13.0983
12.9207,13.0983
12.7538,13.1875
12.7538,13.1875
12.6075,13.3075
12.6075,13.3075
12.4875,13.4538
12.4875,13.4538
12.4875,13.4538
12.3983,13.6207
12.3753,13.6965
12.3434,13.8017
12.3249,13.9900
12.3249,13.9900
10.5006,13.9900
10.5433,13.9159
10.6312,13.7039
10.6905,13.4822
10.7205,13.2547
10.7205,13.0253
10.7053,12.9100
56.8386,12.9100
56.8579,13.1061
56.8819,13.1852
56.9151,13.2948
57.0080,13.4686
57.0080,13.4686
57.0080,13.4686
57.1330,13.6209
57.1330,13.6209
57.1330,13.6210
57.1331,13.6210
57.1331,13.6210
57.2854,13.7460
57.2854,13.7460
57.4592,13.8389
57.6388,13.8934
57.6479,13.8961
57.8440,13.9154
57.8440,13.9154
57.8440,13.9154
58.0401,13.8961
58.0401,13.8961
58.0402,13.8961
58.2288,13.8389
58.4026,13.7460
58.5550,13.6210
58.6800,13.4686
58.7729,13.2948
58.8301,13.1062
58.8301,13.1061
58.8301,13.1061
58.8494,12.9100
58.8494,12.9100
58.8301,12.7139
58.8274,12.7048
58.7729,12.5252
58.6800,12.3514
58.5550,12.1990
58.5549,12.1990
58.5549,12.1990
58.4026,12.0740
58.4026,12.0740
58.4026,12.0740
58.2288,11.9811
58.1192,11.9479
58.0401,11.9239
57.8440,11.9046
57.8440,11.9046
57.6479,11.9239
57.5448,11.9552
57.4592,11.9811
57.4592,11.9811
57.4592,11.9811
57.2854,12.0740
57.2854,12.0740
57.1331,12.1990
57.1330,12.1991
57.0080,12.3514
57.0080,12.3514
57.0080,12.3514
56.9151,12.5252
56.8997,12.5761
56.8579,12.7139
56.8386,12.9100
56.8386,12.9100
10.7053,12.9100
10.6905,12.7978
10.6312,12.5761
10.5433,12.3641
10.4286,12.1654
10.4286,12.1654
10.4286,12.1654
10.2889,11.9833
10.2889,11.9833
10.2889,11.9833
10.2889,11.9833
10.1267,11.8211
10.1267,11.8211
10.1267,11.8211
10.1267,11.8211
9.9446,11.6814
9.7459,11.5667
9.5339,11.4788
9.5339,11.4788
9.3122,11.4195
9.3122,11.4195
9.0847,11.3895
8.8553,11.3895
8.6486,11.4167
8.6278,11.4195
8.4061,11.4788
8.4061,11.4788
8.1941,11.5667
7.9954,11.6814
7.8133,11.8211
7.8133,11.8211
7.6511,11.9833
7.6511,11.9833
7.5114,12.1654
7.3967,12.3641
7.3088,12.5761
7.3088,12.5761
7.2495,12.7978
7.2495,12.7978
7.2195,13.0253
7.2195,13.2547
3.5005,13.2547
3.5005,10.9900
12.3249,10.9900
12.3434,11.1783
12.3664,11.2542
12.3983,11.3593
12.4875,11.5262
12.4875,11.5262
12.4875,11.5262
12.6075,11.6725
12.6075,11.6725
12.6075,11.6725
12.6075,11.6725
12.6075,11.6725
12.6184,11.6814
12.7538,11.7925
12.9207,11.8817
13.0930,11.9340
13.1017,11.9366
13.2900,11.9552
13.2900,11.9552
13.2900,11.9552
13.4783,11.9366
13.4783,11.9366
13.4783,11.9366
13.6593,11.8817
13.8262,11.7925
13.9725,11.6725
14.0925,11.5262
14.1817,11.3593
14.2366,11.1783
14.2366,11.1783
14.2366,11.1783
14.2551,10.9900
14.2551,10.9900
14.2366,10.8017
14.2340,10.7930
14.1817,10.6207
14.0925,10.4538
13.9725,10.3075
13.9725,10.3075
13.9725,10.3075
13.8262,10.1875
13.8262,10.1875
13.8262,10.1875
13.6593,10.0983
13.5542,10.0664
13.4783,10.0434
13.2900,10.0249
13.2900,10.0249
13.1017,10.0434
12.9965,10.0753
12.9207,10.0983
12.9207,10.0983
12.9207,10.0983
12.7538,10.1875
12.7538,10.1875
12.6075,10.3075
12.6075,10.3075
12.4875,10.4538
12.4875,10.4538
12.4875,10.4538
12.3983,10.6207
12.3753,10.6966
12.3434,10.8017
12.3249,10.9900
12.3249,10.9900
3.5005,10.9900
3.5005,7.2500
31.5445,7.2500
31.5644,7.5283
31.5644,7.5283
31.6237,7.8009
31.6237,7.8009
31.7212,8.0623
31.8314,8.2640
31.8549,8.3072
32.0221,8.5306
32.2194,8.7279
32.4428,8.8951
32.6054,8.9838
32.6877,9.0288
32.6877,9.0288
32.6877,9.0288
32.9491,9.1263
33.2217,9.1856
33.5000,9.2055
33.7783,9.1856
34.0509,9.1263
34.1213,9.1000
56.8386,9.1000
56.8579,9.2961
56.8819,9.3752
56.9151,9.4848
57.0080,9.6586
57.0080,9.6586
57.0080,9.6586
57.1330,9.8109
57.1330,9.8109
57.1330,9.8110
57.1331,9.8110
57.1331,9.8110
57.2854,9.9360
57.2854,9.9360
57.4592,10.0289
57.6388,10.0834
57.6479,10.0861
57.8440,10.1054
57.8440,10.1054
57.8440,10.1054
58.0401,10.0861
58.0401,10.0861
58.0402,10.0861
58.2288,10.0289
58.4026,9.9360
58.5550,9.8110
58.6800,9.6586
58.7729,9.4848
58.8301,9.2962
58.8301,9.2961
58.8301,9.2961
58.8494,9.1000
58.8494,9.1000
58.8301,8.9039
58.8274,8.8948
58.7729,8.7152
58.6800,8.5414
58.6711,8.5306
58.5550,8.3891
58.5550,8.3891
58.5550,8.3890
58.5549,8.3890
58.5549,8.3890
58.4026,8.2640
58.4026,8.2640
58.4026,8.2640
58.2288,8.1711
58.1192,8.1379
58.0401,8.1139
57.8440,8.0946
57.8440,8.0946
57.6479,8.1139
57.5383,8.1471
57.4592,8.1711
57.4592,8.1711
57.4592,8.1711
57.2854,8.2640
57.2854,8.2640
57.1331,8.3890
57.1330,8.3891
57.0080,8.5414
57.0080,8.5414
57.0080,8.5414
56.9151,8.7152
56.8911,8.7943
56.8579,8.9039
56.8386,9.1000
56.8386,9.1000
34.1213,9.1000
34.3123,9.0288
34.5572,8.8951
34.7806,8.7279
34.9779,8.5306
35.1451,8.3072
35.2788,8.0623
35.3763,7.8009
35.4356,7.5283
35.4555,7.2500
35.4356,6.9717
35.3763,6.6991
35.2788,6.4377
35.1451,6.1928
34.9779,5.9694
34.7806,5.7721
34.6835,5.6995
34.5572,5.6049
34.5572,5.6049
34.3123,5.4712
34.3123,5.4712
34.0509,5.3737
33.8292,5.3255
33.7783,5.3144
33.5000,5.2945
33.2217,5.3144
33.0854,5.3441
32.9491,5.3737
32.9491,5.3737
32.9491,5.3737
32.6877,5.4712
32.4428,5.6049
32.4428,5.6049
32.2194,5.7721
32.0221,5.9694
31.8549,6.1928
31.8549,6.1928
31.7212,6.4377
31.6237,6.6991
31.5644,6.9717
31.5445,7.2500
3.5005,7.2500
3.5005,6.3173
3.5075,6.3003
5.0003,4.8075
5.0173,4.8005
61.9827,4.8005
Z" /> 
</g>
<g style="fill:#FFFFFF; fill-opacity:1.0000; stroke:none;">
<circle cx="33.5000" cy="26.5000" r="1.5000" /> 
</g>
<g style="fill:#FFFFFF; fill-opacity:1.0000; stroke:none;">
<circle cx="33.5000" cy="7.2500" r="1.5000" /> 
</g>
<g style="fill:#FFFFFF; fill-opacity:1.0000; stroke:none;">
<circle cx="32.4500" cy="18.2000" r="0.1500" /> 
</g>
<g style="fill:#FFFFFF; fill-opacity:1.0000; stroke:none;">
<circle cx="32.4500" cy="13.8500" r="0.1500" /> 
</g>
<g style="fill:#FFFFFF; fill-opacity:1.0000; stroke:none;">
<circle cx="37.7500" cy="17.2500" r="0.1500" /> 
</g>
<g style="fill:#FFFFFF; fill-opacity:1.0000; stroke:none;">
<circle cx="43.2500" cy="26.2500" r="0.1500" /> 
</g>
<g style="fill:#FFFFFF; fill-opacity:1.0000; stroke:none;">
<circle cx="8.9700" cy="13.1400" r="1.5000" /> 
</g>
<g style="fill:#FFFFFF; fill-opacity:1.0000; stroke:none;">
<circle cx="8.9700" cy="20.8400" r="1.5000" /> 
</g>
<g style="fill:#FFFFFF; fill-opacity:1.0000; stroke:none;">
<circle cx="13.2900" cy="22.9900" r="0.5100" /> 
</g>
<g style="fill:#FFFFFF; fill-opacity:1.0000; stroke:none;">
<circle cx="13.2900" cy="19.9900" r="0.5100" /> 
</g>
<g style="fill:#FFFFFF; fill-opacity:1.0000; stroke:none;">
<circle cx="13.2900" cy="16.9900" r="0.5100" /> 
</g>
<g style="fill:#FFFFFF; fill-opacity:1.0000; stroke:none;">
<circle cx="13.2900" cy="13.9900" r="0.5100" /> 
</g>
<g style="fill:#FFFFFF; fill-opacity:1.0000; stroke:none;">
<circle cx="13.2900" cy="10.9900" r="0.5100" /> 
</g>
<g style="fill:#FFFFFF; fill-opacity:1.0000; stroke:none;">
<circle cx="57.8540" cy="20.5100" r="0.5461" /> 
</g>
<g style="fill:#FFFFFF; fill-opacity:1.0000; stroke:none;">
<circle cx="57.8540" cy="24.3200" r="0.5461" /> 
</g>
<g style="fill:#FFFFFF; fill-opacity:1.0000; stroke:none;">
<circle cx="57.8440" cy="9.1000" r="0.5461" /> 
</g>
<g style="fill:#FFFFFF; fill-opacity:1.0000; stroke:none;">
<circle cx="57.8440" cy="12.9100" r="0.5461" /> 
</g>
<g style="fill:none; 
stroke:#D0D2CD; stroke-width:0.0500; stroke-opacity:1; 
stroke-linecap:round; stroke-linejoin:round;">
<path d="M62.2000 4.3000
L64.0000 6.1000
" />
<path d="M64.0000 6.1000
L64.0000 27.5000
" />
<path d="M3.0000 6.1000
L4.8000 4.3000
" />
<path d="M4.8000 29.3000
L3.0000 27.5000
" />
<path d="M64.0000 27.5000
L62.2000 29.3000
" />
<path d="M4.8000 4.3000
L62.2000 4.3000
" />
<path d="M62.2000 29.3000
L4.8000 29.3000
" />
<path d="M3.0000 27.5000
L3.0000 6.1000
" />
</g> 
</svg>
