%TF.GenerationSoftware,KiCad,Pcbnew,8.0.1*%
%TF.CreationDate,2024-04-22T12:52:14-04:00*%
%TF.ProjectId,QATCH_MUX_PCB_tester_1x1,51415443-485f-44d5-9558-5f5043425f74,1*%
%TF.SameCoordinates,Original*%
%TF.FileFunction,Legend,Top*%
%TF.FilePolarity,Positive*%
%FSLAX46Y46*%
G04 Gerber Fmt 4.6, Leading zero omitted, Abs format (unit mm)*
G04 Created by KiCad (PCBNEW 8.0.1) date 2024-04-22 12:52:14*
%MOMM*%
%LPD*%
G01*
G04 APERTURE LIST*
%ADD10C,0.150000*%
%ADD11C,0.152400*%
%ADD12C,0.508000*%
%ADD13C,0.000000*%
G04 APERTURE END LIST*
D10*
X125586779Y-98619819D02*
X125586779Y-97619819D01*
X125586779Y-97619819D02*
X125967731Y-97619819D01*
X125967731Y-97619819D02*
X126062969Y-97667438D01*
X126062969Y-97667438D02*
X126110588Y-97715057D01*
X126110588Y-97715057D02*
X126158207Y-97810295D01*
X126158207Y-97810295D02*
X126158207Y-97953152D01*
X126158207Y-97953152D02*
X126110588Y-98048390D01*
X126110588Y-98048390D02*
X126062969Y-98096009D01*
X126062969Y-98096009D02*
X125967731Y-98143628D01*
X125967731Y-98143628D02*
X125586779Y-98143628D01*
X126777255Y-97619819D02*
X126967731Y-97619819D01*
X126967731Y-97619819D02*
X127062969Y-97667438D01*
X127062969Y-97667438D02*
X127158207Y-97762676D01*
X127158207Y-97762676D02*
X127205826Y-97953152D01*
X127205826Y-97953152D02*
X127205826Y-98286485D01*
X127205826Y-98286485D02*
X127158207Y-98476961D01*
X127158207Y-98476961D02*
X127062969Y-98572200D01*
X127062969Y-98572200D02*
X126967731Y-98619819D01*
X126967731Y-98619819D02*
X126777255Y-98619819D01*
X126777255Y-98619819D02*
X126682017Y-98572200D01*
X126682017Y-98572200D02*
X126586779Y-98476961D01*
X126586779Y-98476961D02*
X126539160Y-98286485D01*
X126539160Y-98286485D02*
X126539160Y-97953152D01*
X126539160Y-97953152D02*
X126586779Y-97762676D01*
X126586779Y-97762676D02*
X126682017Y-97667438D01*
X126682017Y-97667438D02*
X126777255Y-97619819D01*
X127539160Y-97619819D02*
X127777255Y-98619819D01*
X127777255Y-98619819D02*
X127967731Y-97905533D01*
X127967731Y-97905533D02*
X128158207Y-98619819D01*
X128158207Y-98619819D02*
X128396303Y-97619819D01*
X128777255Y-98096009D02*
X129110588Y-98096009D01*
X129253445Y-98619819D02*
X128777255Y-98619819D01*
X128777255Y-98619819D02*
X128777255Y-97619819D01*
X128777255Y-97619819D02*
X129253445Y-97619819D01*
X130253445Y-98619819D02*
X129920112Y-98143628D01*
X129682017Y-98619819D02*
X129682017Y-97619819D01*
X129682017Y-97619819D02*
X130062969Y-97619819D01*
X130062969Y-97619819D02*
X130158207Y-97667438D01*
X130158207Y-97667438D02*
X130205826Y-97715057D01*
X130205826Y-97715057D02*
X130253445Y-97810295D01*
X130253445Y-97810295D02*
X130253445Y-97953152D01*
X130253445Y-97953152D02*
X130205826Y-98048390D01*
X130205826Y-98048390D02*
X130158207Y-98096009D01*
X130158207Y-98096009D02*
X130062969Y-98143628D01*
X130062969Y-98143628D02*
X129682017Y-98143628D01*
X168369819Y-108143220D02*
X167369819Y-108143220D01*
X168369819Y-107667030D02*
X167369819Y-107667030D01*
X167369819Y-107667030D02*
X168369819Y-107095602D01*
X168369819Y-107095602D02*
X167369819Y-107095602D01*
X167465057Y-105905125D02*
X167417438Y-105857506D01*
X167417438Y-105857506D02*
X167369819Y-105762268D01*
X167369819Y-105762268D02*
X167369819Y-105524173D01*
X167369819Y-105524173D02*
X167417438Y-105428935D01*
X167417438Y-105428935D02*
X167465057Y-105381316D01*
X167465057Y-105381316D02*
X167560295Y-105333697D01*
X167560295Y-105333697D02*
X167655533Y-105333697D01*
X167655533Y-105333697D02*
X167798390Y-105381316D01*
X167798390Y-105381316D02*
X168369819Y-105952744D01*
X168369819Y-105952744D02*
X168369819Y-105333697D01*
X167369819Y-103952744D02*
X167369819Y-103762268D01*
X167369819Y-103762268D02*
X167417438Y-103667030D01*
X167417438Y-103667030D02*
X167512676Y-103571792D01*
X167512676Y-103571792D02*
X167703152Y-103524173D01*
X167703152Y-103524173D02*
X168036485Y-103524173D01*
X168036485Y-103524173D02*
X168226961Y-103571792D01*
X168226961Y-103571792D02*
X168322200Y-103667030D01*
X168322200Y-103667030D02*
X168369819Y-103762268D01*
X168369819Y-103762268D02*
X168369819Y-103952744D01*
X168369819Y-103952744D02*
X168322200Y-104047982D01*
X168322200Y-104047982D02*
X168226961Y-104143220D01*
X168226961Y-104143220D02*
X168036485Y-104190839D01*
X168036485Y-104190839D02*
X167703152Y-104190839D01*
X167703152Y-104190839D02*
X167512676Y-104143220D01*
X167512676Y-104143220D02*
X167417438Y-104047982D01*
X167417438Y-104047982D02*
X167369819Y-103952744D01*
X167369819Y-103095601D02*
X168179342Y-103095601D01*
X168179342Y-103095601D02*
X168274580Y-103047982D01*
X168274580Y-103047982D02*
X168322200Y-103000363D01*
X168322200Y-103000363D02*
X168369819Y-102905125D01*
X168369819Y-102905125D02*
X168369819Y-102714649D01*
X168369819Y-102714649D02*
X168322200Y-102619411D01*
X168322200Y-102619411D02*
X168274580Y-102571792D01*
X168274580Y-102571792D02*
X168179342Y-102524173D01*
X168179342Y-102524173D02*
X167369819Y-102524173D01*
X167369819Y-102190839D02*
X167369819Y-101619411D01*
X168369819Y-101905125D02*
X167369819Y-101905125D01*
X134250000Y-93664819D02*
X134250000Y-93902914D01*
X134011905Y-93807676D02*
X134250000Y-93902914D01*
X134250000Y-93902914D02*
X134488095Y-93807676D01*
X134107143Y-94093390D02*
X134250000Y-93902914D01*
X134250000Y-93902914D02*
X134392857Y-94093390D01*
X168369819Y-96663220D02*
X167369819Y-96663220D01*
X168369819Y-96187030D02*
X167369819Y-96187030D01*
X167369819Y-96187030D02*
X168369819Y-95615602D01*
X168369819Y-95615602D02*
X167369819Y-95615602D01*
X168369819Y-93853697D02*
X168369819Y-94425125D01*
X168369819Y-94139411D02*
X167369819Y-94139411D01*
X167369819Y-94139411D02*
X167512676Y-94234649D01*
X167512676Y-94234649D02*
X167607914Y-94329887D01*
X167607914Y-94329887D02*
X167655533Y-94425125D01*
X167369819Y-92472744D02*
X167369819Y-92282268D01*
X167369819Y-92282268D02*
X167417438Y-92187030D01*
X167417438Y-92187030D02*
X167512676Y-92091792D01*
X167512676Y-92091792D02*
X167703152Y-92044173D01*
X167703152Y-92044173D02*
X168036485Y-92044173D01*
X168036485Y-92044173D02*
X168226961Y-92091792D01*
X168226961Y-92091792D02*
X168322200Y-92187030D01*
X168322200Y-92187030D02*
X168369819Y-92282268D01*
X168369819Y-92282268D02*
X168369819Y-92472744D01*
X168369819Y-92472744D02*
X168322200Y-92567982D01*
X168322200Y-92567982D02*
X168226961Y-92663220D01*
X168226961Y-92663220D02*
X168036485Y-92710839D01*
X168036485Y-92710839D02*
X167703152Y-92710839D01*
X167703152Y-92710839D02*
X167512676Y-92663220D01*
X167512676Y-92663220D02*
X167417438Y-92567982D01*
X167417438Y-92567982D02*
X167369819Y-92472744D01*
X167369819Y-91615601D02*
X168179342Y-91615601D01*
X168179342Y-91615601D02*
X168274580Y-91567982D01*
X168274580Y-91567982D02*
X168322200Y-91520363D01*
X168322200Y-91520363D02*
X168369819Y-91425125D01*
X168369819Y-91425125D02*
X168369819Y-91234649D01*
X168369819Y-91234649D02*
X168322200Y-91139411D01*
X168322200Y-91139411D02*
X168274580Y-91091792D01*
X168274580Y-91091792D02*
X168179342Y-91044173D01*
X168179342Y-91044173D02*
X167369819Y-91044173D01*
X167369819Y-90710839D02*
X167369819Y-90139411D01*
X168369819Y-90425125D02*
X167369819Y-90425125D01*
X151153160Y-98334104D02*
X151629350Y-98334104D01*
X151057922Y-98619819D02*
X151391255Y-97619819D01*
X151391255Y-97619819D02*
X151724588Y-98619819D01*
X152629350Y-98524580D02*
X152581731Y-98572200D01*
X152581731Y-98572200D02*
X152438874Y-98619819D01*
X152438874Y-98619819D02*
X152343636Y-98619819D01*
X152343636Y-98619819D02*
X152200779Y-98572200D01*
X152200779Y-98572200D02*
X152105541Y-98476961D01*
X152105541Y-98476961D02*
X152057922Y-98381723D01*
X152057922Y-98381723D02*
X152010303Y-98191247D01*
X152010303Y-98191247D02*
X152010303Y-98048390D01*
X152010303Y-98048390D02*
X152057922Y-97857914D01*
X152057922Y-97857914D02*
X152105541Y-97762676D01*
X152105541Y-97762676D02*
X152200779Y-97667438D01*
X152200779Y-97667438D02*
X152343636Y-97619819D01*
X152343636Y-97619819D02*
X152438874Y-97619819D01*
X152438874Y-97619819D02*
X152581731Y-97667438D01*
X152581731Y-97667438D02*
X152629350Y-97715057D01*
X152915065Y-97619819D02*
X153486493Y-97619819D01*
X153200779Y-98619819D02*
X153200779Y-97619819D01*
X153819827Y-98619819D02*
X153819827Y-97619819D01*
X154153160Y-97619819D02*
X154486493Y-98619819D01*
X154486493Y-98619819D02*
X154819826Y-97619819D01*
X155153160Y-98096009D02*
X155486493Y-98096009D01*
X155629350Y-98619819D02*
X155153160Y-98619819D01*
X155153160Y-98619819D02*
X155153160Y-97619819D01*
X155153160Y-97619819D02*
X155629350Y-97619819D01*
X152593905Y-95124819D02*
X152593905Y-94124819D01*
X153165333Y-95124819D02*
X152736762Y-94553390D01*
X153165333Y-94124819D02*
X152593905Y-94696247D01*
X154117714Y-95124819D02*
X153546286Y-95124819D01*
X153832000Y-95124819D02*
X153832000Y-94124819D01*
X153832000Y-94124819D02*
X153736762Y-94267676D01*
X153736762Y-94267676D02*
X153641524Y-94362914D01*
X153641524Y-94362914D02*
X153546286Y-94410533D01*
X149776000Y-88474819D02*
X149776000Y-88712914D01*
X149537905Y-88617676D02*
X149776000Y-88712914D01*
X149776000Y-88712914D02*
X150014095Y-88617676D01*
X149633143Y-88903390D02*
X149776000Y-88712914D01*
X149776000Y-88712914D02*
X149918857Y-88903390D01*
X125833333Y-89919580D02*
X125785714Y-89967200D01*
X125785714Y-89967200D02*
X125642857Y-90014819D01*
X125642857Y-90014819D02*
X125547619Y-90014819D01*
X125547619Y-90014819D02*
X125404762Y-89967200D01*
X125404762Y-89967200D02*
X125309524Y-89871961D01*
X125309524Y-89871961D02*
X125261905Y-89776723D01*
X125261905Y-89776723D02*
X125214286Y-89586247D01*
X125214286Y-89586247D02*
X125214286Y-89443390D01*
X125214286Y-89443390D02*
X125261905Y-89252914D01*
X125261905Y-89252914D02*
X125309524Y-89157676D01*
X125309524Y-89157676D02*
X125404762Y-89062438D01*
X125404762Y-89062438D02*
X125547619Y-89014819D01*
X125547619Y-89014819D02*
X125642857Y-89014819D01*
X125642857Y-89014819D02*
X125785714Y-89062438D01*
X125785714Y-89062438D02*
X125833333Y-89110057D01*
X126214286Y-89110057D02*
X126261905Y-89062438D01*
X126261905Y-89062438D02*
X126357143Y-89014819D01*
X126357143Y-89014819D02*
X126595238Y-89014819D01*
X126595238Y-89014819D02*
X126690476Y-89062438D01*
X126690476Y-89062438D02*
X126738095Y-89110057D01*
X126738095Y-89110057D02*
X126785714Y-89205295D01*
X126785714Y-89205295D02*
X126785714Y-89300533D01*
X126785714Y-89300533D02*
X126738095Y-89443390D01*
X126738095Y-89443390D02*
X126166667Y-90014819D01*
X126166667Y-90014819D02*
X126785714Y-90014819D01*
X120916666Y-98944823D02*
X120916666Y-99659108D01*
X120916666Y-99659108D02*
X120869047Y-99801965D01*
X120869047Y-99801965D02*
X120773809Y-99897204D01*
X120773809Y-99897204D02*
X120630952Y-99944823D01*
X120630952Y-99944823D02*
X120535714Y-99944823D01*
X121916666Y-99944823D02*
X121345238Y-99944823D01*
X121630952Y-99944823D02*
X121630952Y-98944823D01*
X121630952Y-98944823D02*
X121535714Y-99087680D01*
X121535714Y-99087680D02*
X121440476Y-99182918D01*
X121440476Y-99182918D02*
X121345238Y-99230537D01*
X127672695Y-95054819D02*
X127672695Y-95864342D01*
X127672695Y-95864342D02*
X127720314Y-95959580D01*
X127720314Y-95959580D02*
X127767933Y-96007200D01*
X127767933Y-96007200D02*
X127863171Y-96054819D01*
X127863171Y-96054819D02*
X128053647Y-96054819D01*
X128053647Y-96054819D02*
X128148885Y-96007200D01*
X128148885Y-96007200D02*
X128196504Y-95959580D01*
X128196504Y-95959580D02*
X128244123Y-95864342D01*
X128244123Y-95864342D02*
X128244123Y-95054819D01*
X128672695Y-95150057D02*
X128720314Y-95102438D01*
X128720314Y-95102438D02*
X128815552Y-95054819D01*
X128815552Y-95054819D02*
X129053647Y-95054819D01*
X129053647Y-95054819D02*
X129148885Y-95102438D01*
X129148885Y-95102438D02*
X129196504Y-95150057D01*
X129196504Y-95150057D02*
X129244123Y-95245295D01*
X129244123Y-95245295D02*
X129244123Y-95340533D01*
X129244123Y-95340533D02*
X129196504Y-95483390D01*
X129196504Y-95483390D02*
X128625076Y-96054819D01*
X128625076Y-96054819D02*
X129244123Y-96054819D01*
X126600000Y-90654819D02*
X126600000Y-90892914D01*
X126361905Y-90797676D02*
X126600000Y-90892914D01*
X126600000Y-90892914D02*
X126838095Y-90797676D01*
X126457143Y-91083390D02*
X126600000Y-90892914D01*
X126600000Y-90892914D02*
X126742857Y-91083390D01*
X162580666Y-109494816D02*
X162580666Y-110209101D01*
X162580666Y-110209101D02*
X162533047Y-110351958D01*
X162533047Y-110351958D02*
X162437809Y-110447197D01*
X162437809Y-110447197D02*
X162294952Y-110494816D01*
X162294952Y-110494816D02*
X162199714Y-110494816D01*
X162961619Y-109494816D02*
X163580666Y-109494816D01*
X163580666Y-109494816D02*
X163247333Y-109875768D01*
X163247333Y-109875768D02*
X163390190Y-109875768D01*
X163390190Y-109875768D02*
X163485428Y-109923387D01*
X163485428Y-109923387D02*
X163533047Y-109971006D01*
X163533047Y-109971006D02*
X163580666Y-110066244D01*
X163580666Y-110066244D02*
X163580666Y-110304339D01*
X163580666Y-110304339D02*
X163533047Y-110399577D01*
X163533047Y-110399577D02*
X163485428Y-110447197D01*
X163485428Y-110447197D02*
X163390190Y-110494816D01*
X163390190Y-110494816D02*
X163104476Y-110494816D01*
X163104476Y-110494816D02*
X163009238Y-110447197D01*
X163009238Y-110447197D02*
X162961619Y-110399577D01*
X126834852Y-101704819D02*
X126358662Y-101704819D01*
X126358662Y-101704819D02*
X126358662Y-100704819D01*
X127168186Y-101181009D02*
X127501519Y-101181009D01*
X127644376Y-101704819D02*
X127168186Y-101704819D01*
X127168186Y-101704819D02*
X127168186Y-100704819D01*
X127168186Y-100704819D02*
X127644376Y-100704819D01*
X128072948Y-101704819D02*
X128072948Y-100704819D01*
X128072948Y-100704819D02*
X128311043Y-100704819D01*
X128311043Y-100704819D02*
X128453900Y-100752438D01*
X128453900Y-100752438D02*
X128549138Y-100847676D01*
X128549138Y-100847676D02*
X128596757Y-100942914D01*
X128596757Y-100942914D02*
X128644376Y-101133390D01*
X128644376Y-101133390D02*
X128644376Y-101276247D01*
X128644376Y-101276247D02*
X128596757Y-101466723D01*
X128596757Y-101466723D02*
X128549138Y-101561961D01*
X128549138Y-101561961D02*
X128453900Y-101657200D01*
X128453900Y-101657200D02*
X128311043Y-101704819D01*
X128311043Y-101704819D02*
X128072948Y-101704819D01*
X129025329Y-100800057D02*
X129072948Y-100752438D01*
X129072948Y-100752438D02*
X129168186Y-100704819D01*
X129168186Y-100704819D02*
X129406281Y-100704819D01*
X129406281Y-100704819D02*
X129501519Y-100752438D01*
X129501519Y-100752438D02*
X129549138Y-100800057D01*
X129549138Y-100800057D02*
X129596757Y-100895295D01*
X129596757Y-100895295D02*
X129596757Y-100990533D01*
X129596757Y-100990533D02*
X129549138Y-101133390D01*
X129549138Y-101133390D02*
X128977710Y-101704819D01*
X128977710Y-101704819D02*
X129596757Y-101704819D01*
X144758633Y-106454819D02*
X144425300Y-105978628D01*
X144187205Y-106454819D02*
X144187205Y-105454819D01*
X144187205Y-105454819D02*
X144568157Y-105454819D01*
X144568157Y-105454819D02*
X144663395Y-105502438D01*
X144663395Y-105502438D02*
X144711014Y-105550057D01*
X144711014Y-105550057D02*
X144758633Y-105645295D01*
X144758633Y-105645295D02*
X144758633Y-105788152D01*
X144758633Y-105788152D02*
X144711014Y-105883390D01*
X144711014Y-105883390D02*
X144663395Y-105931009D01*
X144663395Y-105931009D02*
X144568157Y-105978628D01*
X144568157Y-105978628D02*
X144187205Y-105978628D01*
X145139586Y-105550057D02*
X145187205Y-105502438D01*
X145187205Y-105502438D02*
X145282443Y-105454819D01*
X145282443Y-105454819D02*
X145520538Y-105454819D01*
X145520538Y-105454819D02*
X145615776Y-105502438D01*
X145615776Y-105502438D02*
X145663395Y-105550057D01*
X145663395Y-105550057D02*
X145711014Y-105645295D01*
X145711014Y-105645295D02*
X145711014Y-105740533D01*
X145711014Y-105740533D02*
X145663395Y-105883390D01*
X145663395Y-105883390D02*
X145091967Y-106454819D01*
X145091967Y-106454819D02*
X145711014Y-106454819D01*
X136688095Y-105424819D02*
X136688095Y-106234342D01*
X136688095Y-106234342D02*
X136735714Y-106329580D01*
X136735714Y-106329580D02*
X136783333Y-106377200D01*
X136783333Y-106377200D02*
X136878571Y-106424819D01*
X136878571Y-106424819D02*
X137069047Y-106424819D01*
X137069047Y-106424819D02*
X137164285Y-106377200D01*
X137164285Y-106377200D02*
X137211904Y-106329580D01*
X137211904Y-106329580D02*
X137259523Y-106234342D01*
X137259523Y-106234342D02*
X137259523Y-105424819D01*
X138259523Y-106424819D02*
X137688095Y-106424819D01*
X137973809Y-106424819D02*
X137973809Y-105424819D01*
X137973809Y-105424819D02*
X137878571Y-105567676D01*
X137878571Y-105567676D02*
X137783333Y-105662914D01*
X137783333Y-105662914D02*
X137688095Y-105710533D01*
X162530666Y-98187222D02*
X162530666Y-98901507D01*
X162530666Y-98901507D02*
X162483047Y-99044364D01*
X162483047Y-99044364D02*
X162387809Y-99139603D01*
X162387809Y-99139603D02*
X162244952Y-99187222D01*
X162244952Y-99187222D02*
X162149714Y-99187222D01*
X162959238Y-98282460D02*
X163006857Y-98234841D01*
X163006857Y-98234841D02*
X163102095Y-98187222D01*
X163102095Y-98187222D02*
X163340190Y-98187222D01*
X163340190Y-98187222D02*
X163435428Y-98234841D01*
X163435428Y-98234841D02*
X163483047Y-98282460D01*
X163483047Y-98282460D02*
X163530666Y-98377698D01*
X163530666Y-98377698D02*
X163530666Y-98472936D01*
X163530666Y-98472936D02*
X163483047Y-98615793D01*
X163483047Y-98615793D02*
X162911619Y-99187222D01*
X162911619Y-99187222D02*
X163530666Y-99187222D01*
X123963333Y-95959580D02*
X123915714Y-96007200D01*
X123915714Y-96007200D02*
X123772857Y-96054819D01*
X123772857Y-96054819D02*
X123677619Y-96054819D01*
X123677619Y-96054819D02*
X123534762Y-96007200D01*
X123534762Y-96007200D02*
X123439524Y-95911961D01*
X123439524Y-95911961D02*
X123391905Y-95816723D01*
X123391905Y-95816723D02*
X123344286Y-95626247D01*
X123344286Y-95626247D02*
X123344286Y-95483390D01*
X123344286Y-95483390D02*
X123391905Y-95292914D01*
X123391905Y-95292914D02*
X123439524Y-95197676D01*
X123439524Y-95197676D02*
X123534762Y-95102438D01*
X123534762Y-95102438D02*
X123677619Y-95054819D01*
X123677619Y-95054819D02*
X123772857Y-95054819D01*
X123772857Y-95054819D02*
X123915714Y-95102438D01*
X123915714Y-95102438D02*
X123963333Y-95150057D01*
X124915714Y-96054819D02*
X124344286Y-96054819D01*
X124630000Y-96054819D02*
X124630000Y-95054819D01*
X124630000Y-95054819D02*
X124534762Y-95197676D01*
X124534762Y-95197676D02*
X124439524Y-95292914D01*
X124439524Y-95292914D02*
X124344286Y-95340533D01*
X125833333Y-107454819D02*
X125500000Y-106978628D01*
X125261905Y-107454819D02*
X125261905Y-106454819D01*
X125261905Y-106454819D02*
X125642857Y-106454819D01*
X125642857Y-106454819D02*
X125738095Y-106502438D01*
X125738095Y-106502438D02*
X125785714Y-106550057D01*
X125785714Y-106550057D02*
X125833333Y-106645295D01*
X125833333Y-106645295D02*
X125833333Y-106788152D01*
X125833333Y-106788152D02*
X125785714Y-106883390D01*
X125785714Y-106883390D02*
X125738095Y-106931009D01*
X125738095Y-106931009D02*
X125642857Y-106978628D01*
X125642857Y-106978628D02*
X125261905Y-106978628D01*
X126690476Y-106788152D02*
X126690476Y-107454819D01*
X126452381Y-106407200D02*
X126214286Y-107121485D01*
X126214286Y-107121485D02*
X126833333Y-107121485D01*
X144808633Y-101704819D02*
X144475300Y-101228628D01*
X144237205Y-101704819D02*
X144237205Y-100704819D01*
X144237205Y-100704819D02*
X144618157Y-100704819D01*
X144618157Y-100704819D02*
X144713395Y-100752438D01*
X144713395Y-100752438D02*
X144761014Y-100800057D01*
X144761014Y-100800057D02*
X144808633Y-100895295D01*
X144808633Y-100895295D02*
X144808633Y-101038152D01*
X144808633Y-101038152D02*
X144761014Y-101133390D01*
X144761014Y-101133390D02*
X144713395Y-101181009D01*
X144713395Y-101181009D02*
X144618157Y-101228628D01*
X144618157Y-101228628D02*
X144237205Y-101228628D01*
X145141967Y-100704819D02*
X145761014Y-100704819D01*
X145761014Y-100704819D02*
X145427681Y-101085771D01*
X145427681Y-101085771D02*
X145570538Y-101085771D01*
X145570538Y-101085771D02*
X145665776Y-101133390D01*
X145665776Y-101133390D02*
X145713395Y-101181009D01*
X145713395Y-101181009D02*
X145761014Y-101276247D01*
X145761014Y-101276247D02*
X145761014Y-101514342D01*
X145761014Y-101514342D02*
X145713395Y-101609580D01*
X145713395Y-101609580D02*
X145665776Y-101657200D01*
X145665776Y-101657200D02*
X145570538Y-101704819D01*
X145570538Y-101704819D02*
X145284824Y-101704819D01*
X145284824Y-101704819D02*
X145189586Y-101657200D01*
X145189586Y-101657200D02*
X145141967Y-101609580D01*
X152565905Y-111204819D02*
X152565905Y-110204819D01*
X153137333Y-111204819D02*
X152708762Y-110633390D01*
X153137333Y-110204819D02*
X152565905Y-110776247D01*
X153518286Y-110300057D02*
X153565905Y-110252438D01*
X153565905Y-110252438D02*
X153661143Y-110204819D01*
X153661143Y-110204819D02*
X153899238Y-110204819D01*
X153899238Y-110204819D02*
X153994476Y-110252438D01*
X153994476Y-110252438D02*
X154042095Y-110300057D01*
X154042095Y-110300057D02*
X154089714Y-110395295D01*
X154089714Y-110395295D02*
X154089714Y-110490533D01*
X154089714Y-110490533D02*
X154042095Y-110633390D01*
X154042095Y-110633390D02*
X153470667Y-111204819D01*
X153470667Y-111204819D02*
X154089714Y-111204819D01*
X149748000Y-104704819D02*
X149748000Y-104942914D01*
X149509905Y-104847676D02*
X149748000Y-104942914D01*
X149748000Y-104942914D02*
X149986095Y-104847676D01*
X149605143Y-105133390D02*
X149748000Y-104942914D01*
X149748000Y-104942914D02*
X149890857Y-105133390D01*
X152177052Y-101704819D02*
X151700862Y-101704819D01*
X151700862Y-101704819D02*
X151700862Y-100704819D01*
X152510386Y-101181009D02*
X152843719Y-101181009D01*
X152986576Y-101704819D02*
X152510386Y-101704819D01*
X152510386Y-101704819D02*
X152510386Y-100704819D01*
X152510386Y-100704819D02*
X152986576Y-100704819D01*
X153415148Y-101704819D02*
X153415148Y-100704819D01*
X153415148Y-100704819D02*
X153653243Y-100704819D01*
X153653243Y-100704819D02*
X153796100Y-100752438D01*
X153796100Y-100752438D02*
X153891338Y-100847676D01*
X153891338Y-100847676D02*
X153938957Y-100942914D01*
X153938957Y-100942914D02*
X153986576Y-101133390D01*
X153986576Y-101133390D02*
X153986576Y-101276247D01*
X153986576Y-101276247D02*
X153938957Y-101466723D01*
X153938957Y-101466723D02*
X153891338Y-101561961D01*
X153891338Y-101561961D02*
X153796100Y-101657200D01*
X153796100Y-101657200D02*
X153653243Y-101704819D01*
X153653243Y-101704819D02*
X153415148Y-101704819D01*
X154938957Y-101704819D02*
X154367529Y-101704819D01*
X154653243Y-101704819D02*
X154653243Y-100704819D01*
X154653243Y-100704819D02*
X154558005Y-100847676D01*
X154558005Y-100847676D02*
X154462767Y-100942914D01*
X154462767Y-100942914D02*
X154367529Y-100990533D01*
X144808033Y-97054819D02*
X144474700Y-96578628D01*
X144236605Y-97054819D02*
X144236605Y-96054819D01*
X144236605Y-96054819D02*
X144617557Y-96054819D01*
X144617557Y-96054819D02*
X144712795Y-96102438D01*
X144712795Y-96102438D02*
X144760414Y-96150057D01*
X144760414Y-96150057D02*
X144808033Y-96245295D01*
X144808033Y-96245295D02*
X144808033Y-96388152D01*
X144808033Y-96388152D02*
X144760414Y-96483390D01*
X144760414Y-96483390D02*
X144712795Y-96531009D01*
X144712795Y-96531009D02*
X144617557Y-96578628D01*
X144617557Y-96578628D02*
X144236605Y-96578628D01*
X145760414Y-97054819D02*
X145188986Y-97054819D01*
X145474700Y-97054819D02*
X145474700Y-96054819D01*
X145474700Y-96054819D02*
X145379462Y-96197676D01*
X145379462Y-96197676D02*
X145284224Y-96292914D01*
X145284224Y-96292914D02*
X145188986Y-96340533D01*
D11*
%TO.C,K1*%
X151007900Y-88774300D02*
X151007900Y-93625700D01*
X151007900Y-93625700D02*
X155656100Y-93625700D01*
X155656100Y-88774300D02*
X151007900Y-88774300D01*
X155656100Y-93625700D02*
X155656100Y-88774300D01*
%TO.C,J1*%
X109370000Y-90170003D02*
X109370000Y-108810004D01*
X109370000Y-108810004D02*
X119270001Y-108810004D01*
X117655000Y-110588004D02*
X118290000Y-109064004D01*
X118290000Y-109064004D02*
X118925000Y-110588004D01*
X118925000Y-110588004D02*
X117655000Y-110588004D01*
X119270001Y-90170003D02*
X109370000Y-90170003D01*
X119270001Y-93042114D02*
X119270001Y-90170003D01*
X119270001Y-96042113D02*
X119270001Y-93937893D01*
X119270001Y-99042112D02*
X119270001Y-96937893D01*
X119270001Y-102042111D02*
X119270001Y-99937892D01*
X119270001Y-104501076D02*
X119270001Y-102937891D01*
X119270001Y-108810004D02*
X119270001Y-106478924D01*
%TO.C,U2*%
X127405900Y-94746400D02*
X129463300Y-94746400D01*
X129463300Y-91393600D02*
X127405900Y-91393600D01*
X129463300Y-93433261D02*
X129463300Y-92706739D01*
%TO.C,J3*%
X159141201Y-100982999D02*
X159141201Y-109009399D01*
X159141201Y-109009399D02*
X166837401Y-109009399D01*
X166837401Y-100982999D02*
X159141201Y-100982999D01*
X166837401Y-109009399D02*
X166837401Y-100982999D01*
D12*
X163235000Y-100347999D02*
G75*
G02*
X162473000Y-100347999I-381000J0D01*
G01*
X162473000Y-100347999D02*
G75*
G02*
X163235000Y-100347999I381000J0D01*
G01*
D11*
%TO.C,LED2*%
X125553600Y-99115000D02*
X125553600Y-100385000D01*
X125553600Y-99750000D02*
X126315600Y-99115000D01*
X125553600Y-99750000D02*
X126315600Y-99242000D01*
X125553600Y-99750000D02*
X126315600Y-99369000D01*
X125553600Y-99750000D02*
X126315600Y-99496000D01*
X125553600Y-99750000D02*
X126315600Y-99623000D01*
X125553600Y-99750000D02*
X126315600Y-99877000D01*
X125553600Y-99750000D02*
X126315600Y-100004000D01*
X125553600Y-99750000D02*
X126315600Y-100131000D01*
X125553600Y-99750000D02*
X126315600Y-100258000D01*
X125553600Y-99750000D02*
X126315600Y-100385000D01*
X126315600Y-99115000D02*
X126315600Y-100385000D01*
X126569600Y-99750000D02*
X125299600Y-99750000D01*
%TO.C,R2*%
X144839150Y-104953400D02*
X145011450Y-104953400D01*
X145011450Y-103886600D02*
X144839150Y-103886600D01*
%TO.C,U1*%
X136352897Y-104808800D02*
X138531503Y-104808800D01*
X138531503Y-94801200D02*
X136352897Y-94801200D01*
X137747000Y-94801200D02*
G75*
G02*
X137137400Y-94801200I-304800J0D01*
G01*
D13*
G36*
X141404600Y-103170500D02*
G01*
X141150600Y-103170500D01*
X141150600Y-102789500D01*
X141404600Y-102789500D01*
X141404600Y-103170500D01*
G37*
D11*
%TO.C,J2*%
X159131201Y-89573002D02*
X159131201Y-97599402D01*
X159131201Y-97599402D02*
X166827401Y-97599402D01*
X166827401Y-89573002D02*
X159131201Y-89573002D01*
X166827401Y-97599402D02*
X166827401Y-89573002D01*
D12*
X163225000Y-88938002D02*
G75*
G02*
X162463000Y-88938002I-381000J0D01*
G01*
X162463000Y-88938002D02*
G75*
G02*
X163225000Y-88938002I381000J0D01*
G01*
D11*
%TO.C,R4*%
X125913850Y-106033400D02*
X126086150Y-106033400D01*
X126086150Y-104966600D02*
X125913850Y-104966600D01*
%TO.C,R3*%
X144889150Y-100283400D02*
X145061450Y-100283400D01*
X145061450Y-99216600D02*
X144889150Y-99216600D01*
%TO.C,K2*%
X150979900Y-105024300D02*
X150979900Y-109875700D01*
X150979900Y-109875700D02*
X155628100Y-109875700D01*
X155628100Y-105024300D02*
X150979900Y-105024300D01*
X155628100Y-109875700D02*
X155628100Y-105024300D01*
%TO.C,LED1*%
X150895800Y-99115000D02*
X150895800Y-100385000D01*
X150895800Y-99750000D02*
X151657800Y-99115000D01*
X150895800Y-99750000D02*
X151657800Y-99242000D01*
X150895800Y-99750000D02*
X151657800Y-99369000D01*
X150895800Y-99750000D02*
X151657800Y-99496000D01*
X150895800Y-99750000D02*
X151657800Y-99623000D01*
X150895800Y-99750000D02*
X151657800Y-99877000D01*
X150895800Y-99750000D02*
X151657800Y-100004000D01*
X150895800Y-99750000D02*
X151657800Y-100131000D01*
X150895800Y-99750000D02*
X151657800Y-100258000D01*
X150895800Y-99750000D02*
X151657800Y-100385000D01*
X151657800Y-99115000D02*
X151657800Y-100385000D01*
X151911800Y-99750000D02*
X150641800Y-99750000D01*
%TO.C,R1*%
X144888550Y-95713400D02*
X145060850Y-95713400D01*
X145060850Y-94646600D02*
X144888550Y-94646600D01*
%TD*%
M02*
