%TF.GenerationSoftware,KiCad,Pcbnew,8.0.1*%
%TF.CreationDate,2024-04-22T12:52:14-04:00*%
%TF.ProjectId,QATCH_MUX_PCB_tester_1x1,51415443-485f-44d5-9558-5f5043425f74,1*%
%TF.SameCoordinates,Original*%
%TF.FileFunction,Legend,Bot*%
%TF.FilePolarity,Positive*%
%FSLAX46Y46*%
G04 Gerber Fmt 4.6, Leading zero omitted, Abs format (unit mm)*
G04 Created by KiCad (PCBNEW 8.0.1) date 2024-04-22 12:52:14*
%MOMM*%
%LPD*%
G01*
G04 APERTURE LIST*
%ADD10C,0.150000*%
%ADD11C,0.508000*%
G04 APERTURE END LIST*
D10*
X110567469Y-107927506D02*
X110605564Y-108003696D01*
X110605564Y-108003696D02*
X110681755Y-108079887D01*
X110681755Y-108079887D02*
X110796040Y-108194173D01*
X110796040Y-108194173D02*
X110834135Y-108270363D01*
X110834135Y-108270363D02*
X110834135Y-108346554D01*
X110643659Y-108308458D02*
X110681755Y-108384649D01*
X110681755Y-108384649D02*
X110757945Y-108460839D01*
X110757945Y-108460839D02*
X110910326Y-108498935D01*
X110910326Y-108498935D02*
X111176993Y-108498935D01*
X111176993Y-108498935D02*
X111329374Y-108460839D01*
X111329374Y-108460839D02*
X111405564Y-108384649D01*
X111405564Y-108384649D02*
X111443659Y-108308458D01*
X111443659Y-108308458D02*
X111443659Y-108156077D01*
X111443659Y-108156077D02*
X111405564Y-108079887D01*
X111405564Y-108079887D02*
X111329374Y-108003696D01*
X111329374Y-108003696D02*
X111176993Y-107965601D01*
X111176993Y-107965601D02*
X110910326Y-107965601D01*
X110910326Y-107965601D02*
X110757945Y-108003696D01*
X110757945Y-108003696D02*
X110681755Y-108079887D01*
X110681755Y-108079887D02*
X110643659Y-108156077D01*
X110643659Y-108156077D02*
X110643659Y-108308458D01*
X110872231Y-107660840D02*
X110872231Y-107279887D01*
X110643659Y-107737030D02*
X111443659Y-107470363D01*
X111443659Y-107470363D02*
X110643659Y-107203697D01*
X111443659Y-107051316D02*
X111443659Y-106594173D01*
X110643659Y-106822745D02*
X111443659Y-106822745D01*
X110719850Y-105870363D02*
X110681755Y-105908459D01*
X110681755Y-105908459D02*
X110643659Y-106022744D01*
X110643659Y-106022744D02*
X110643659Y-106098935D01*
X110643659Y-106098935D02*
X110681755Y-106213221D01*
X110681755Y-106213221D02*
X110757945Y-106289411D01*
X110757945Y-106289411D02*
X110834135Y-106327506D01*
X110834135Y-106327506D02*
X110986516Y-106365602D01*
X110986516Y-106365602D02*
X111100802Y-106365602D01*
X111100802Y-106365602D02*
X111253183Y-106327506D01*
X111253183Y-106327506D02*
X111329374Y-106289411D01*
X111329374Y-106289411D02*
X111405564Y-106213221D01*
X111405564Y-106213221D02*
X111443659Y-106098935D01*
X111443659Y-106098935D02*
X111443659Y-106022744D01*
X111443659Y-106022744D02*
X111405564Y-105908459D01*
X111405564Y-105908459D02*
X111367469Y-105870363D01*
X110643659Y-105527506D02*
X111443659Y-105527506D01*
X111062707Y-105527506D02*
X111062707Y-105070363D01*
X110643659Y-105070363D02*
X111443659Y-105070363D01*
X110567469Y-104879888D02*
X110567469Y-104270364D01*
X110643659Y-104079887D02*
X111443659Y-104079887D01*
X111443659Y-104079887D02*
X110872231Y-103813221D01*
X110872231Y-103813221D02*
X111443659Y-103546554D01*
X111443659Y-103546554D02*
X110643659Y-103546554D01*
X111443659Y-103165601D02*
X110796040Y-103165601D01*
X110796040Y-103165601D02*
X110719850Y-103127506D01*
X110719850Y-103127506D02*
X110681755Y-103089411D01*
X110681755Y-103089411D02*
X110643659Y-103013220D01*
X110643659Y-103013220D02*
X110643659Y-102860839D01*
X110643659Y-102860839D02*
X110681755Y-102784649D01*
X110681755Y-102784649D02*
X110719850Y-102746554D01*
X110719850Y-102746554D02*
X110796040Y-102708458D01*
X110796040Y-102708458D02*
X111443659Y-102708458D01*
X111443659Y-102403697D02*
X110643659Y-101870363D01*
X111443659Y-101870363D02*
X110643659Y-102403697D01*
X110567469Y-101756078D02*
X110567469Y-101146554D01*
X110643659Y-100956077D02*
X111443659Y-100956077D01*
X111443659Y-100956077D02*
X111443659Y-100651315D01*
X111443659Y-100651315D02*
X111405564Y-100575125D01*
X111405564Y-100575125D02*
X111367469Y-100537030D01*
X111367469Y-100537030D02*
X111291278Y-100498934D01*
X111291278Y-100498934D02*
X111176993Y-100498934D01*
X111176993Y-100498934D02*
X111100802Y-100537030D01*
X111100802Y-100537030D02*
X111062707Y-100575125D01*
X111062707Y-100575125D02*
X111024612Y-100651315D01*
X111024612Y-100651315D02*
X111024612Y-100956077D01*
X110719850Y-99698934D02*
X110681755Y-99737030D01*
X110681755Y-99737030D02*
X110643659Y-99851315D01*
X110643659Y-99851315D02*
X110643659Y-99927506D01*
X110643659Y-99927506D02*
X110681755Y-100041792D01*
X110681755Y-100041792D02*
X110757945Y-100117982D01*
X110757945Y-100117982D02*
X110834135Y-100156077D01*
X110834135Y-100156077D02*
X110986516Y-100194173D01*
X110986516Y-100194173D02*
X111100802Y-100194173D01*
X111100802Y-100194173D02*
X111253183Y-100156077D01*
X111253183Y-100156077D02*
X111329374Y-100117982D01*
X111329374Y-100117982D02*
X111405564Y-100041792D01*
X111405564Y-100041792D02*
X111443659Y-99927506D01*
X111443659Y-99927506D02*
X111443659Y-99851315D01*
X111443659Y-99851315D02*
X111405564Y-99737030D01*
X111405564Y-99737030D02*
X111367469Y-99698934D01*
X111062707Y-99089411D02*
X111024612Y-98975125D01*
X111024612Y-98975125D02*
X110986516Y-98937030D01*
X110986516Y-98937030D02*
X110910326Y-98898934D01*
X110910326Y-98898934D02*
X110796040Y-98898934D01*
X110796040Y-98898934D02*
X110719850Y-98937030D01*
X110719850Y-98937030D02*
X110681755Y-98975125D01*
X110681755Y-98975125D02*
X110643659Y-99051315D01*
X110643659Y-99051315D02*
X110643659Y-99356077D01*
X110643659Y-99356077D02*
X111443659Y-99356077D01*
X111443659Y-99356077D02*
X111443659Y-99089411D01*
X111443659Y-99089411D02*
X111405564Y-99013220D01*
X111405564Y-99013220D02*
X111367469Y-98975125D01*
X111367469Y-98975125D02*
X111291278Y-98937030D01*
X111291278Y-98937030D02*
X111215088Y-98937030D01*
X111215088Y-98937030D02*
X111138897Y-98975125D01*
X111138897Y-98975125D02*
X111100802Y-99013220D01*
X111100802Y-99013220D02*
X111062707Y-99089411D01*
X111062707Y-99089411D02*
X111062707Y-99356077D01*
X110567469Y-98746554D02*
X110567469Y-98137030D01*
X111176993Y-98060839D02*
X111176993Y-97756077D01*
X111443659Y-97946553D02*
X110757945Y-97946553D01*
X110757945Y-97946553D02*
X110681755Y-97908458D01*
X110681755Y-97908458D02*
X110643659Y-97832268D01*
X110643659Y-97832268D02*
X110643659Y-97756077D01*
X110681755Y-97184648D02*
X110643659Y-97260839D01*
X110643659Y-97260839D02*
X110643659Y-97413220D01*
X110643659Y-97413220D02*
X110681755Y-97489410D01*
X110681755Y-97489410D02*
X110757945Y-97527506D01*
X110757945Y-97527506D02*
X111062707Y-97527506D01*
X111062707Y-97527506D02*
X111138897Y-97489410D01*
X111138897Y-97489410D02*
X111176993Y-97413220D01*
X111176993Y-97413220D02*
X111176993Y-97260839D01*
X111176993Y-97260839D02*
X111138897Y-97184648D01*
X111138897Y-97184648D02*
X111062707Y-97146553D01*
X111062707Y-97146553D02*
X110986516Y-97146553D01*
X110986516Y-97146553D02*
X110910326Y-97527506D01*
X110681755Y-96841792D02*
X110643659Y-96765601D01*
X110643659Y-96765601D02*
X110643659Y-96613220D01*
X110643659Y-96613220D02*
X110681755Y-96537030D01*
X110681755Y-96537030D02*
X110757945Y-96498934D01*
X110757945Y-96498934D02*
X110796040Y-96498934D01*
X110796040Y-96498934D02*
X110872231Y-96537030D01*
X110872231Y-96537030D02*
X110910326Y-96613220D01*
X110910326Y-96613220D02*
X110910326Y-96727506D01*
X110910326Y-96727506D02*
X110948421Y-96803696D01*
X110948421Y-96803696D02*
X111024612Y-96841792D01*
X111024612Y-96841792D02*
X111062707Y-96841792D01*
X111062707Y-96841792D02*
X111138897Y-96803696D01*
X111138897Y-96803696D02*
X111176993Y-96727506D01*
X111176993Y-96727506D02*
X111176993Y-96613220D01*
X111176993Y-96613220D02*
X111138897Y-96537030D01*
X111176993Y-96270363D02*
X111176993Y-95965601D01*
X111443659Y-96156077D02*
X110757945Y-96156077D01*
X110757945Y-96156077D02*
X110681755Y-96117982D01*
X110681755Y-96117982D02*
X110643659Y-96041792D01*
X110643659Y-96041792D02*
X110643659Y-95965601D01*
X110681755Y-95394172D02*
X110643659Y-95470363D01*
X110643659Y-95470363D02*
X110643659Y-95622744D01*
X110643659Y-95622744D02*
X110681755Y-95698934D01*
X110681755Y-95698934D02*
X110757945Y-95737030D01*
X110757945Y-95737030D02*
X111062707Y-95737030D01*
X111062707Y-95737030D02*
X111138897Y-95698934D01*
X111138897Y-95698934D02*
X111176993Y-95622744D01*
X111176993Y-95622744D02*
X111176993Y-95470363D01*
X111176993Y-95470363D02*
X111138897Y-95394172D01*
X111138897Y-95394172D02*
X111062707Y-95356077D01*
X111062707Y-95356077D02*
X110986516Y-95356077D01*
X110986516Y-95356077D02*
X110910326Y-95737030D01*
X110643659Y-95013220D02*
X111176993Y-95013220D01*
X111024612Y-95013220D02*
X111100802Y-94975125D01*
X111100802Y-94975125D02*
X111138897Y-94937030D01*
X111138897Y-94937030D02*
X111176993Y-94860839D01*
X111176993Y-94860839D02*
X111176993Y-94784649D01*
X110567469Y-94708459D02*
X110567469Y-94098935D01*
X110643659Y-93489411D02*
X110643659Y-93946554D01*
X110643659Y-93717982D02*
X111443659Y-93717982D01*
X111443659Y-93717982D02*
X111329374Y-93794173D01*
X111329374Y-93794173D02*
X111253183Y-93870363D01*
X111253183Y-93870363D02*
X111215088Y-93946554D01*
X110643659Y-93222744D02*
X111176993Y-92803696D01*
X111176993Y-93222744D02*
X110643659Y-92803696D01*
X110643659Y-92079887D02*
X110643659Y-92537030D01*
X110643659Y-92308458D02*
X111443659Y-92308458D01*
X111443659Y-92308458D02*
X111329374Y-92384649D01*
X111329374Y-92384649D02*
X111253183Y-92460839D01*
X111253183Y-92460839D02*
X111215088Y-92537030D01*
X110079514Y-108498935D02*
X110117609Y-108460839D01*
X110117609Y-108460839D02*
X110155704Y-108384649D01*
X110155704Y-108384649D02*
X110155704Y-108194173D01*
X110155704Y-108194173D02*
X110117609Y-108117982D01*
X110117609Y-108117982D02*
X110079514Y-108079887D01*
X110079514Y-108079887D02*
X110003323Y-108041792D01*
X110003323Y-108041792D02*
X109927133Y-108041792D01*
X109927133Y-108041792D02*
X109812847Y-108079887D01*
X109812847Y-108079887D02*
X109355704Y-108537030D01*
X109355704Y-108537030D02*
X109355704Y-108041792D01*
X110155704Y-107546553D02*
X110155704Y-107470363D01*
X110155704Y-107470363D02*
X110117609Y-107394172D01*
X110117609Y-107394172D02*
X110079514Y-107356077D01*
X110079514Y-107356077D02*
X110003323Y-107317982D01*
X110003323Y-107317982D02*
X109850942Y-107279887D01*
X109850942Y-107279887D02*
X109660466Y-107279887D01*
X109660466Y-107279887D02*
X109508085Y-107317982D01*
X109508085Y-107317982D02*
X109431895Y-107356077D01*
X109431895Y-107356077D02*
X109393800Y-107394172D01*
X109393800Y-107394172D02*
X109355704Y-107470363D01*
X109355704Y-107470363D02*
X109355704Y-107546553D01*
X109355704Y-107546553D02*
X109393800Y-107622744D01*
X109393800Y-107622744D02*
X109431895Y-107660839D01*
X109431895Y-107660839D02*
X109508085Y-107698934D01*
X109508085Y-107698934D02*
X109660466Y-107737030D01*
X109660466Y-107737030D02*
X109850942Y-107737030D01*
X109850942Y-107737030D02*
X110003323Y-107698934D01*
X110003323Y-107698934D02*
X110079514Y-107660839D01*
X110079514Y-107660839D02*
X110117609Y-107622744D01*
X110117609Y-107622744D02*
X110155704Y-107546553D01*
X110079514Y-106975125D02*
X110117609Y-106937029D01*
X110117609Y-106937029D02*
X110155704Y-106860839D01*
X110155704Y-106860839D02*
X110155704Y-106670363D01*
X110155704Y-106670363D02*
X110117609Y-106594172D01*
X110117609Y-106594172D02*
X110079514Y-106556077D01*
X110079514Y-106556077D02*
X110003323Y-106517982D01*
X110003323Y-106517982D02*
X109927133Y-106517982D01*
X109927133Y-106517982D02*
X109812847Y-106556077D01*
X109812847Y-106556077D02*
X109355704Y-107013220D01*
X109355704Y-107013220D02*
X109355704Y-106517982D01*
X109889038Y-105832267D02*
X109355704Y-105832267D01*
X110193800Y-106022743D02*
X109622371Y-106213220D01*
X109622371Y-106213220D02*
X109622371Y-105717981D01*
X109660466Y-105413219D02*
X109660466Y-104803696D01*
X110155704Y-104270362D02*
X110155704Y-104194172D01*
X110155704Y-104194172D02*
X110117609Y-104117981D01*
X110117609Y-104117981D02*
X110079514Y-104079886D01*
X110079514Y-104079886D02*
X110003323Y-104041791D01*
X110003323Y-104041791D02*
X109850942Y-104003696D01*
X109850942Y-104003696D02*
X109660466Y-104003696D01*
X109660466Y-104003696D02*
X109508085Y-104041791D01*
X109508085Y-104041791D02*
X109431895Y-104079886D01*
X109431895Y-104079886D02*
X109393800Y-104117981D01*
X109393800Y-104117981D02*
X109355704Y-104194172D01*
X109355704Y-104194172D02*
X109355704Y-104270362D01*
X109355704Y-104270362D02*
X109393800Y-104346553D01*
X109393800Y-104346553D02*
X109431895Y-104384648D01*
X109431895Y-104384648D02*
X109508085Y-104422743D01*
X109508085Y-104422743D02*
X109660466Y-104460839D01*
X109660466Y-104460839D02*
X109850942Y-104460839D01*
X109850942Y-104460839D02*
X110003323Y-104422743D01*
X110003323Y-104422743D02*
X110079514Y-104384648D01*
X110079514Y-104384648D02*
X110117609Y-104346553D01*
X110117609Y-104346553D02*
X110155704Y-104270362D01*
X109889038Y-103317981D02*
X109355704Y-103317981D01*
X110193800Y-103508457D02*
X109622371Y-103698934D01*
X109622371Y-103698934D02*
X109622371Y-103203695D01*
X109660466Y-102898933D02*
X109660466Y-102289410D01*
X110079514Y-101946553D02*
X110117609Y-101908457D01*
X110117609Y-101908457D02*
X110155704Y-101832267D01*
X110155704Y-101832267D02*
X110155704Y-101641791D01*
X110155704Y-101641791D02*
X110117609Y-101565600D01*
X110117609Y-101565600D02*
X110079514Y-101527505D01*
X110079514Y-101527505D02*
X110003323Y-101489410D01*
X110003323Y-101489410D02*
X109927133Y-101489410D01*
X109927133Y-101489410D02*
X109812847Y-101527505D01*
X109812847Y-101527505D02*
X109355704Y-101984648D01*
X109355704Y-101984648D02*
X109355704Y-101489410D01*
X110079514Y-101184648D02*
X110117609Y-101146552D01*
X110117609Y-101146552D02*
X110155704Y-101070362D01*
X110155704Y-101070362D02*
X110155704Y-100879886D01*
X110155704Y-100879886D02*
X110117609Y-100803695D01*
X110117609Y-100803695D02*
X110079514Y-100765600D01*
X110079514Y-100765600D02*
X110003323Y-100727505D01*
X110003323Y-100727505D02*
X109927133Y-100727505D01*
X109927133Y-100727505D02*
X109812847Y-100765600D01*
X109812847Y-100765600D02*
X109355704Y-101222743D01*
X109355704Y-101222743D02*
X109355704Y-100727505D01*
X109050942Y-99546552D02*
X109089038Y-99584647D01*
X109089038Y-99584647D02*
X109203323Y-99660838D01*
X109203323Y-99660838D02*
X109279514Y-99698933D01*
X109279514Y-99698933D02*
X109393800Y-99737028D01*
X109393800Y-99737028D02*
X109584276Y-99775123D01*
X109584276Y-99775123D02*
X109736657Y-99775123D01*
X109736657Y-99775123D02*
X109927133Y-99737028D01*
X109927133Y-99737028D02*
X110041419Y-99698933D01*
X110041419Y-99698933D02*
X110117609Y-99660838D01*
X110117609Y-99660838D02*
X110231895Y-99584647D01*
X110231895Y-99584647D02*
X110269990Y-99546552D01*
X109889038Y-99317981D02*
X109355704Y-99127505D01*
X109355704Y-99127505D02*
X109889038Y-98937028D01*
X109355704Y-98213219D02*
X109355704Y-98670362D01*
X109355704Y-98441790D02*
X110155704Y-98441790D01*
X110155704Y-98441790D02*
X110041419Y-98517981D01*
X110041419Y-98517981D02*
X109965228Y-98594171D01*
X109965228Y-98594171D02*
X109927133Y-98670362D01*
X109050942Y-97946552D02*
X109089038Y-97908457D01*
X109089038Y-97908457D02*
X109203323Y-97832266D01*
X109203323Y-97832266D02*
X109279514Y-97794171D01*
X109279514Y-97794171D02*
X109393800Y-97756076D01*
X109393800Y-97756076D02*
X109584276Y-97717980D01*
X109584276Y-97717980D02*
X109736657Y-97717980D01*
X109736657Y-97717980D02*
X109927133Y-97756076D01*
X109927133Y-97756076D02*
X110041419Y-97794171D01*
X110041419Y-97794171D02*
X110117609Y-97832266D01*
X110117609Y-97832266D02*
X110231895Y-97908457D01*
X110231895Y-97908457D02*
X110269990Y-97946552D01*
D11*
%TO.C,J3*%
X163235000Y-100347999D02*
G75*
G02*
X162473000Y-100347999I-381000J0D01*
G01*
X162473000Y-100347999D02*
G75*
G02*
X163235000Y-100347999I381000J0D01*
G01*
%TO.C,J2*%
X163225000Y-88938002D02*
G75*
G02*
X162463000Y-88938002I-381000J0D01*
G01*
X162463000Y-88938002D02*
G75*
G02*
X163225000Y-88938002I381000J0D01*
G01*
%TD*%
M02*
